<svg width="474" height="650" viewBox="0 0 474 650" fill="none" xmlns="http://www.w3.org/2000/svg">
<path fill-rule="evenodd" clip-rule="evenodd" d="M56.4129 554.5L56.4129 564.5L55.2129 564.5L55.2129 554.5L56.4129 554.5Z" fill="#2950B1"/>
<path fill-rule="evenodd" clip-rule="evenodd" d="M58.8008 556.705L58.0565 557.5L55.8008 555.09L53.545 557.5L52.8008 556.705L55.8008 553.5L58.8008 556.705Z" fill="#2950B1"/>
<path fill-rule="evenodd" clip-rule="evenodd" d="M61.6379 563.5L61.6379 553.5L62.8379 553.5L62.8379 563.5L61.6379 563.5Z" fill="#2950B1"/>
<path fill-rule="evenodd" clip-rule="evenodd" d="M59.25 561.295L59.9942 560.5L62.25 562.91L64.5058 560.5L65.25 561.295L62.25 564.5L59.25 561.295Z" fill="#2950B1"/>
<path fill-rule="evenodd" clip-rule="evenodd" d="M6.41875 554.5L6.41875 564.5L5.21875 564.5L5.21875 554.5L6.41875 554.5Z" fill="black"/>
<path fill-rule="evenodd" clip-rule="evenodd" d="M8.80469 556.705L8.06044 557.5L5.80469 555.09L3.54893 557.5L2.80469 556.705L5.80469 553.5L8.80469 556.705Z" fill="black"/>
<path fill-rule="evenodd" clip-rule="evenodd" d="M11.6359 563.5L11.6359 553.5L12.8359 553.5L12.8359 563.5L11.6359 563.5Z" fill="black"/>
<path fill-rule="evenodd" clip-rule="evenodd" d="M9.25 561.295L9.99424 560.5L12.25 562.91L14.5058 560.5L15.25 561.295L12.25 564.5L9.25 561.295Z" fill="black"/>
<path d="M308.417 502.219C308.651 501.729 309.349 501.729 309.583 502.219L309.892 502.865C310.078 503.254 310.586 503.356 310.907 503.067L311.439 502.589C311.843 502.226 312.487 502.493 312.516 503.035L312.554 503.75C312.577 504.18 313.008 504.468 313.415 504.324L314.089 504.086C314.602 503.905 315.095 504.398 314.914 504.911L314.676 505.585C314.532 505.992 314.82 506.423 315.25 506.446L315.965 506.484C316.507 506.513 316.774 507.157 316.411 507.561L315.933 508.093C315.644 508.414 315.746 508.922 316.135 509.108L316.781 509.417C317.27 509.651 317.27 510.349 316.781 510.583L316.135 510.892C315.746 511.078 315.644 511.586 315.933 511.907L316.411 512.439C316.774 512.843 316.507 513.487 315.965 513.516L315.25 513.554C314.82 513.577 314.532 514.008 314.676 514.415L314.914 515.089C315.095 515.602 314.602 516.095 314.089 515.914L313.415 515.676C313.008 515.532 312.577 515.82 312.554 516.25L312.516 516.965C312.487 517.507 311.843 517.774 311.439 517.411L310.907 516.933C310.586 516.644 310.078 516.746 309.892 517.135L309.583 517.781C309.349 518.27 308.651 518.27 308.417 517.781L308.108 517.135C307.922 516.746 307.414 516.644 307.093 516.933L306.561 517.411C306.157 517.774 305.513 517.507 305.484 516.965L305.446 516.25C305.423 515.82 304.992 515.532 304.585 515.676L303.911 515.914C303.398 516.095 302.905 515.602 303.086 515.089L303.324 514.415C303.468 514.008 303.18 513.577 302.75 513.554L302.035 513.516C301.493 513.487 301.226 512.843 301.589 512.439L302.067 511.907C302.356 511.586 302.254 511.078 301.865 510.892L301.219 510.583C300.729 510.349 300.729 509.651 301.219 509.417L301.865 509.108C302.254 508.922 302.356 508.414 302.067 508.093L301.589 507.561C301.226 507.157 301.493 506.513 302.035 506.484L302.75 506.446C303.18 506.423 303.468 505.992 303.324 505.585L303.086 504.911C302.905 504.398 303.398 503.905 303.911 504.086L304.585 504.324C304.992 504.468 305.423 504.18 305.446 503.75L305.484 503.035C305.513 502.493 306.157 502.226 306.561 502.589L307.093 503.067C307.414 503.356 307.922 503.254 308.108 502.865L308.417 502.219Z" fill="black"/>
<path d="M306 510L308 512L312 508" stroke="white" stroke-width="1.5"/>
<path fill-rule="evenodd" clip-rule="evenodd" d="M205.626 508.625L211.626 515L210.876 515.75L205.626 510.125L202.599 512.427L201.902 511.544L205.626 508.625Z" fill="black"/>
<circle cx="212" cy="506.75" r="1.65" stroke="black" stroke-width="1.2"/>
<path fill-rule="evenodd" clip-rule="evenodd" d="M215.375 503.375H202.625V514.625H209.389H210.805H215.375V503.375ZM201.5 502.25V515.75H209.389H210.805H216.5V502.25H201.5Z" fill="black"/>
<path fill-rule="evenodd" clip-rule="evenodd" d="M366.5 359.826L351.5 359.826L351.5 358.4L366.5 358.4L366.5 359.826Z" fill="black"/>
<path fill-rule="evenodd" clip-rule="evenodd" d="M355.734 365.896H351.5V364.4H355.734V365.896Z" fill="black"/>
<path fill-rule="evenodd" clip-rule="evenodd" d="M366.5 365.826H359.367V364.4H366.5V365.826Z" fill="black"/>
<path fill-rule="evenodd" clip-rule="evenodd" d="M366.5 353.826L351.5 353.826V352.4H366.5V353.826Z" fill="black"/>
<path fill-rule="evenodd" clip-rule="evenodd" d="M360.238 362.543L361.086 363.391L359.449 365.03L361.086 366.667L360.238 367.515L357.752 365.03L360.238 362.543Z" fill="black"/>
<path fill-rule="evenodd" clip-rule="evenodd" d="M315.417 360.975L316.266 360.126L313.084 356.944L312.235 357.793L315.417 360.975Z" fill="black"/>
<path fill-rule="evenodd" clip-rule="evenodd" d="M313.084 360.975L312.235 360.126L315.417 356.944L316.266 357.793L313.084 360.975Z" fill="black"/>
<path fill-rule="evenodd" clip-rule="evenodd" d="M310.601 366.891L301.401 363.147L301.401 354.862L310.601 351.106L310.601 366.891ZM309.401 365.107L309.401 352.892L302.601 355.668L302.601 362.34L309.401 365.107Z" fill="black"/>
<path fill-rule="evenodd" clip-rule="evenodd" d="M266.5 359.559L266.5 358.359L263 358.359L263 359.559L266.5 359.559Z" fill="black"/>
<path fill-rule="evenodd" clip-rule="evenodd" d="M265.597 354.908L264.997 353.869L261.966 355.619L262.566 356.658L265.597 354.908Z" fill="black"/>
<path fill-rule="evenodd" clip-rule="evenodd" d="M265.272 364.059L265.872 363.019L262.841 361.269L262.241 362.309L265.272 364.059Z" fill="black"/>
<path fill-rule="evenodd" clip-rule="evenodd" d="M260.601 366.891L251.401 363.147L251.401 354.862L260.601 351.106L260.601 366.891ZM259.401 365.107L259.401 352.892L252.601 355.668L252.601 362.34L259.401 365.107Z" fill="black"/>
<rect x="201.6" y="351.6" width="14.8" height="14.8" stroke="black" stroke-width="1.2"/>
<rect x="206.2" y="351.3" width="0.6" height="15.4" fill="#999999" stroke="black" stroke-width="0.6"/>
<rect x="211.2" y="351.3" width="0.6" height="15.4" fill="#999999" stroke="black" stroke-width="0.6"/>
<rect x="201.3" y="358.7" width="15.4" height="0.6" fill="#999999" stroke="black" stroke-width="0.6"/>
<rect x="158.8" y="352.3" width="0.6" height="6.4" fill="#999999" stroke="black" stroke-width="0.6"/>
<rect x="152.3" y="358.8" width="13.4" height="0.6" fill="#999999" stroke="black" stroke-width="0.6"/>
<rect x="151.6" y="351.6" width="14.8" height="14.8" stroke="black" stroke-width="1.2"/>
<rect x="102.1" y="352.096" width="13.8" height="13.8001" stroke="black" stroke-width="1.2"/>
<path fill-rule="evenodd" clip-rule="evenodd" d="M111.625 358.996L107.125 354.871L107.125 363.121L111.625 358.996ZM110.404 358.996L107.95 356.747L107.95 361.246L110.404 358.996Z" fill="black"/>
<path d="M11.1662 358.83L9.28125 356.945" stroke="black" stroke-width="1.2" stroke-miterlimit="10"/>
<path d="M9.99365 359.998L13.5525 356.447L11.6676 354.562L9.57166 356.658L2.25 363.978L4.13492 365.855L9.04416 360.947" stroke="black" stroke-width="1.2" stroke-miterlimit="10"/>
<path d="M14.9531 354.477V351.477" stroke="black" stroke-width="1.2" stroke-miterlimit="10"/>
<path d="M13.4531 352.977H16.4531" stroke="black" stroke-width="1.2" stroke-miterlimit="10"/>
<path d="M15 361.227V358.227" stroke="black" stroke-width="1.2" stroke-miterlimit="10"/>
<path d="M13.5 359.727H16.5" stroke="black" stroke-width="1.2" stroke-miterlimit="10"/>
<path d="M8.25 354.477V351.477" stroke="black" stroke-width="1.2" stroke-miterlimit="10"/>
<path d="M6.75 352.977H9.75" stroke="black" stroke-width="1.2" stroke-miterlimit="10"/>
<path d="M404.241 302H415.5V313.259M402 315.5L415.125 302.375" stroke="black" stroke-width="1.2"/>
<path fill-rule="evenodd" clip-rule="evenodd" d="M365.3 306.331H352.7V315.371H365.3V306.331ZM351.5 305.201V316.501H366.5V305.201H351.5Z" fill="black"/>
<path fill-rule="evenodd" clip-rule="evenodd" d="M355.425 301.506L354.576 302.354L357.423 305.201H360.578L363.425 302.354L362.576 301.506L359 305.082L355.425 301.506Z" fill="black"/>
<path fill-rule="evenodd" clip-rule="evenodd" d="M152 307.354C152 305.263 152 302 152 302V301H153H157.5H162H163V302V308.5V309.4C163 309.4 162.391 309.4 162 309.4C159.266 309.4 155.341 309.4 155.341 309.4L152 311.7C152 311.7 152 309.887 152 307.354ZM153.2 307.354V309.4L155 308.2H161.8V302.2H153.2V307.354Z" fill="black"/>
<path fill-rule="evenodd" clip-rule="evenodd" d="M156 309L156 313.301V314.201H157.045H163.007L166.5 316.501V312.154V306.801V305.801H165.455L162 305.801V307.001L165.245 307.001V312.154V314.201L163.364 313.001H157.255V309H156Z" fill="black"/>
<path fill-rule="evenodd" clip-rule="evenodd" d="M59 301.5L61.2744 306.706L67 307.229L62.68 310.97L63.9443 316.5L59 313.606L54.0557 316.5L55.32 310.97L51 307.229L56.7256 306.706L59 301.5ZM59 304.497L60.4587 307.836L64.0833 308.168L61.3495 310.535L62.1561 314.063L59 312.216L59 304.497Z" fill="black"/>
<path d="M9 301.5L11.2744 306.706L17 307.229L12.68 310.97L13.9443 316.5L9 313.606L4.05573 316.5L5.32 310.97L1 307.229L6.72564 306.706L9 301.5Z" fill="black"/>
<path fill-rule="evenodd" clip-rule="evenodd" d="M461.274 256.706L459 251.5L456.726 256.706L451 257.229L455.32 260.97L454.056 266.5L459 263.606L463.944 266.5L462.68 260.97L467 257.229L461.274 256.706ZM464.083 258.168L460.459 257.836L459 254.497L457.541 257.836L453.917 258.168L456.65 260.535L455.844 264.063L459 262.216L462.156 264.063L461.35 260.535L464.083 258.168Z" fill="black"/>
<path fill-rule="evenodd" clip-rule="evenodd" d="M365.3 256.7H352.7V265.3H365.3V256.7ZM351.5 255.5V266.5H366.5V255.5H351.5Z" fill="black"/>
<path d="M358.4 258.75H359.6V263.25H358.4V258.75Z" fill="black"/>
<path fill-rule="evenodd" clip-rule="evenodd" d="M356.78 253.073C356.367 253.621 356.225 254.294 356.225 254.731L356.225 256L355.025 256L355.025 254.731C355.025 254.091 355.221 253.149 355.821 252.351C356.443 251.524 357.466 250.9 359 250.9C360.535 250.9 361.558 251.524 362.18 252.351C362.78 253.149 362.975 254.091 362.975 254.731V256H361.775V254.731C361.775 254.294 361.633 253.621 361.221 253.073C360.83 252.553 360.166 252.1 359 252.1C357.835 252.1 357.171 252.553 356.78 253.073Z" fill="black"/>
<path fill-rule="evenodd" clip-rule="evenodd" d="M309 265.8C312.756 265.8 315.8 262.756 315.8 259C315.8 255.244 312.756 252.2 309 252.2C305.244 252.2 302.2 255.244 302.2 259C302.2 262.756 305.244 265.8 309 265.8ZM309 267C313.418 267 317 263.418 317 259C317 254.582 313.418 251 309 251C304.582 251 301 254.582 301 259C301 263.418 304.582 267 309 267Z" fill="black"/>
<path fill-rule="evenodd" clip-rule="evenodd" d="M309 255.8C308.214 255.8 307.6 256.419 307.6 257.154H306.4C306.4 255.731 307.577 254.6 309 254.6C310.423 254.6 311.6 255.731 311.6 257.154C311.6 258.372 310.74 259.375 309.6 259.64V261.2H308.4V258.509H309C309.787 258.509 310.4 257.89 310.4 257.154C310.4 256.419 309.787 255.8 309 255.8Z" fill="black"/>
<path d="M308.4 262.199H309.6V263.399H308.4V262.199Z" fill="black"/>
<mask id="mask0_988_27797" style="mask-type:alpha" maskUnits="userSpaceOnUse" x="250" y="250" width="18" height="18">
<path d="M268 268L268 250L250 250L250 268L268 268Z" fill="#FF0000"/>
</mask>
<g mask="url(#mask0_988_27797)">
<path fill-rule="evenodd" clip-rule="evenodd" d="M264.415 256.377L257.892 262.9L253.478 258.485L254.326 257.636L257.892 261.202L263.566 255.529L264.415 256.377Z" fill="black"/>
</g>
<path fill-rule="evenodd" clip-rule="evenodd" d="M214.7 259L205.138 250.5L205.138 267.5L214.7 259ZM212.894 259L206.338 253.172L206.338 264.828L212.894 259Z" fill="black"/>
<path d="M366.5 209C366.5 213.142 363.142 216.5 359 216.5C354.858 216.5 351.5 213.142 351.5 209C351.5 204.858 354.858 201.5 359 201.5C363.142 201.5 366.5 204.858 366.5 209Z" fill="black"/>
<path fill-rule="evenodd" clip-rule="evenodd" d="M361.89 206.64L356.64 211.89L356.109 211.359L361.359 206.109L361.89 206.64Z" fill="white"/>
<path fill-rule="evenodd" clip-rule="evenodd" d="M361.359 211.89L356.109 206.64L356.64 206.109L361.89 211.359L361.359 211.89Z" fill="white"/>
<path fill-rule="evenodd" clip-rule="evenodd" d="M258.4 216.5V201.5H259.6V216.5H258.4Z" fill="black"/>
<path fill-rule="evenodd" clip-rule="evenodd" d="M251.5 208.4L266.5 208.4L266.5 209.6L251.5 209.6L251.5 208.4Z" fill="black"/>
<path fill-rule="evenodd" clip-rule="evenodd" d="M101.503 201.275L116.498 201.275V204.754L111.1 210.004V215.349L108.172 217.021L107.275 216.5V210.016L101.503 204.766V201.275ZM102.703 202.475V204.235L108.475 209.485V215.466L109.9 214.652V209.497L115.298 204.247V202.475L102.703 202.475Z" fill="black"/>
<path fill-rule="evenodd" clip-rule="evenodd" d="M12.75 203V201.5H5.25V203H1.5V216.5H16.5V203H12.75ZM15.3 204.2H11.55V202.7H6.45V204.2H2.7V215.3H15.3V204.2Z" fill="black"/>
<path fill-rule="evenodd" clip-rule="evenodd" d="M9 211.175C9.99411 211.175 10.8 210.369 10.8 209.375C10.8 208.381 9.99411 207.575 9 207.575C8.00589 207.575 7.2 208.381 7.2 209.375C7.2 210.369 8.00589 211.175 9 211.175ZM9 212.375C10.6569 212.375 12 211.032 12 209.375C12 207.718 10.6569 206.375 9 206.375C7.34315 206.375 6 207.718 6 209.375C6 211.032 7.34315 212.375 9 212.375Z" fill="black"/>
<path fill-rule="evenodd" clip-rule="evenodd" d="M309.001 157.395C309.472 157.395 309.853 157.014 309.853 156.543C309.853 156.073 309.472 155.692 309.001 155.692C308.531 155.692 308.15 156.073 308.15 156.543C308.15 157.014 308.531 157.395 309.001 157.395ZM309.001 158.595C310.134 158.595 311.053 157.676 311.053 156.543C311.053 155.411 310.134 154.492 309.001 154.492C307.869 154.492 306.95 155.411 306.95 156.543C306.95 157.676 307.869 158.595 309.001 158.595Z" fill="black"/>
<path fill-rule="evenodd" clip-rule="evenodd" d="M311.057 162.73C312.525 160.9 313.784 158.716 313.784 156.756C313.784 154.481 311.696 152.325 309.002 152.325C306.307 152.325 304.219 154.481 304.219 156.756C304.219 158.716 305.478 160.9 306.946 162.73C307.656 163.615 308.37 164.362 308.906 164.887C308.939 164.919 308.97 164.95 309.002 164.98C309.033 164.95 309.064 164.919 309.097 164.887C309.633 164.362 310.347 163.615 311.057 162.73ZM309.002 166.61C309.002 166.61 314.984 161.55 314.984 156.756C314.984 153.767 312.306 151.125 309.002 151.125C305.697 151.125 303.019 153.767 303.019 156.756C303.019 161.55 309.002 166.61 309.002 166.61Z" fill="black"/>
<mask id="mask1_988_27797" style="mask-type:alpha" maskUnits="userSpaceOnUse" x="250" y="150" width="18" height="18">
<path d="M250.75 150.562H267.25V167.062H250.75V150.562Z" fill="white"/>
</mask>
<g mask="url(#mask1_988_27797)">
<mask id="mask2_988_27797" style="mask-type:alpha" maskUnits="userSpaceOnUse" x="251" y="151" width="17" height="16">
<path fill-rule="evenodd" clip-rule="evenodd" d="M265.399 163.421L263.098 165.04C262.371 165.552 261.581 165.606 260.995 165.269C259.874 164.625 258.217 163.484 256.292 161.559C254.34 159.607 253.229 157.966 252.623 156.882C252.323 156.344 252.367 155.618 252.831 154.922L254.457 152.478L256.45 154.471L255.686 155.643C255.41 156.067 255.226 156.686 255.447 157.341C255.669 158.001 256.206 159.098 257.479 160.371C258.703 161.595 259.803 162.179 260.477 162.446C261.229 162.745 261.978 162.519 262.475 162.122L263.379 161.401L265.399 163.421ZM263.788 166.022C262.771 166.738 261.476 166.929 260.397 166.309C259.187 165.614 257.446 164.409 255.443 162.407C253.413 160.377 252.236 158.648 251.576 157.467C251.005 156.445 251.183 155.232 251.831 154.257L253.971 151.042L254.347 151.044L254.727 151.052L257.804 154.128L257.75 154.447L257.692 154.764L256.692 156.298C256.563 156.496 256.509 156.734 256.584 156.958C256.747 157.44 257.184 158.379 258.328 159.523C259.429 160.624 260.389 161.12 260.92 161.331C261.195 161.44 261.496 161.369 261.726 161.185L263.469 159.793L267.257 163.581L263.788 166.022Z" fill="black"/>
</mask>
<g mask="url(#mask2_988_27797)">
<path d="M247.436 156.287L254.728 163.579L262.02 156.287L254.728 148.995L247.436 156.287Z" fill="black"/>
</g>
<mask id="mask3_988_27797" style="mask-type:alpha" maskUnits="userSpaceOnUse" x="251" y="150" width="16" height="17">
<path fill-rule="evenodd" clip-rule="evenodd" d="M254.505 152.525L252.886 154.827C252.374 155.554 252.32 156.344 252.657 156.93C253.301 158.051 254.442 159.707 256.367 161.633C258.319 163.585 259.96 164.696 261.044 165.302C261.581 165.602 262.307 165.558 263.004 165.094L265.448 163.468L263.454 161.475L262.283 162.238C261.859 162.515 261.24 162.698 260.585 162.478C259.924 162.256 258.828 161.719 257.555 160.446C256.331 159.222 255.747 158.121 255.479 157.448C255.181 156.696 255.407 155.947 255.803 155.45L256.525 154.546L254.505 152.525ZM251.904 154.136C251.188 155.154 250.997 156.449 251.616 157.528C252.311 158.738 253.516 160.479 255.519 162.481C257.549 164.511 259.278 165.689 260.459 166.349C261.481 166.92 262.694 166.742 263.669 166.093L266.884 163.954L266.881 163.578L266.874 163.198L263.797 160.121L263.479 160.175L263.162 160.233L261.628 161.233C261.43 161.362 261.192 161.416 260.968 161.341C260.485 161.178 259.547 160.741 258.403 159.597C257.302 158.496 256.806 157.536 256.595 157.004C256.486 156.73 256.557 156.429 256.741 156.199L258.132 154.456L254.344 150.668L251.904 154.136Z" fill="black"/>
</mask>
<g mask="url(#mask3_988_27797)">
<path d="M261.534 170.383L254.728 163.577L262.02 156.285L268.826 163.091L261.534 170.383Z" fill="black"/>
</g>
</g>
<rect x="158" y="151.5" width="2" height="2" fill="black"/>
<rect x="158" y="158" width="2" height="2" fill="black"/>
<rect x="158" y="164.5" width="2" height="2" fill="black"/>
<path fill-rule="evenodd" clip-rule="evenodd" d="M116.5 159.6L101.5 159.6L101.5 158.4L116.5 158.4L116.5 159.6Z" fill="black"/>
<path fill-rule="evenodd" clip-rule="evenodd" d="M116.5 165.6H101.5V164.4H116.5V165.6Z" fill="black"/>
<path fill-rule="evenodd" clip-rule="evenodd" d="M116.5 153.6H101.5V152.4H116.5V153.6Z" fill="black"/>
<path fill-rule="evenodd" clip-rule="evenodd" d="M111.4 154.5V151.5H112.6V154.5H111.4Z" fill="black"/>
<path fill-rule="evenodd" clip-rule="evenodd" d="M104.65 160.5V157.5H105.85V160.5H104.65Z" fill="black"/>
<path fill-rule="evenodd" clip-rule="evenodd" d="M109.899 166.5V163.5H111.099V166.5H109.899Z" fill="black"/>
<path fill-rule="evenodd" clip-rule="evenodd" d="M5 163H1V151H13V153.667H17V167H5V163ZM2.33333 152.333H11.6667V161.667H2.33333V152.333ZM13 155H15.6667V165.667H6.33333V163H13V159.667V155Z" fill="black"/>
<path fill-rule="evenodd" clip-rule="evenodd" d="M209 152.551C208.068 152.551 207.312 153.306 207.312 154.238H206.188C206.188 152.685 207.447 151.426 209 151.426C210.553 151.426 211.812 152.685 211.812 154.238C211.812 155.599 210.846 156.734 209.562 156.995V158.738H208.438V155.926H209C209.932 155.926 210.688 155.17 210.688 154.238C210.688 153.306 209.932 152.551 209 152.551Z" fill="black"/>
<path fill-rule="evenodd" clip-rule="evenodd" d="M209 159.242L215.75 162.566V163.988H216.875V161.866L209 157.988L201.125 161.866V163.988H202.25V162.566L209 159.242ZM201.125 165.488V166.613H202.25H215.75H216.875V165.488H201.125Z" fill="black"/>
<path fill-rule="evenodd" clip-rule="evenodd" d="M264.95 104.8H253.05V115.1H264.95V104.8ZM251.85 103.6V116.3H266.15V103.6H251.85Z" fill="black"/>
<path fill-rule="evenodd" clip-rule="evenodd" d="M266.129 108.337H251.866V107.137H266.129V108.337Z" fill="black"/>
<path fill-rule="evenodd" clip-rule="evenodd" d="M254.832 105.954L254.832 101.699L256.032 101.699L256.032 105.954L254.832 105.954Z" fill="black"/>
<path fill-rule="evenodd" clip-rule="evenodd" d="M261.963 105.954L261.963 101.699L263.163 101.699L263.163 105.954L261.963 105.954Z" fill="black"/>
<path fill-rule="evenodd" clip-rule="evenodd" d="M211.329 102.787L211.079 101H206.919L206.661 102.845C206.004 103.102 205.399 103.462 204.865 103.903L203.111 103.194L201.031 106.796L202.543 107.976C202.491 108.31 202.464 108.652 202.464 109C202.464 109.345 202.49 109.685 202.541 110.016L201.031 111.194L203.111 114.797L204.857 114.09C205.394 114.535 206.001 114.896 206.661 115.155L206.919 117H211.079L211.329 115.213C212.029 114.959 212.673 114.59 213.239 114.13L214.887 114.796L216.967 111.194L215.587 110.117C215.649 109.754 215.681 109.381 215.681 109C215.681 108.616 215.648 108.241 215.586 107.875L216.967 106.797L214.887 103.194L213.232 103.864C212.667 103.406 212.025 103.04 211.329 102.787ZM214.37 104.698L213.026 105.242L212.476 104.796C212.013 104.421 211.488 104.121 210.919 103.914L210.241 103.668L210.035 102.2H207.963L207.752 103.706L207.099 103.962C206.563 104.173 206.067 104.466 205.629 104.828L205.078 105.284L203.629 104.698L202.592 106.492L203.837 107.464L203.728 108.16C203.686 108.433 203.664 108.714 203.664 109C203.664 109.284 203.685 109.562 203.727 109.833L203.835 110.529L202.592 111.498L203.629 113.293L205.072 112.709L205.623 113.166C206.063 113.531 206.56 113.826 207.099 114.038L207.752 114.294L207.963 115.8H210.035L210.241 114.332L210.919 114.085C211.491 113.878 212.018 113.576 212.482 113.199L213.032 112.751L214.37 113.292L215.406 111.498L214.284 110.622L214.404 109.915C214.455 109.619 214.481 109.313 214.481 109C214.481 108.685 214.454 108.377 214.403 108.078L214.282 107.37L215.406 106.493L214.37 104.698Z" fill="black"/>
<path fill-rule="evenodd" clip-rule="evenodd" d="M211.199 109.6H206.799V108.4H211.199V109.6Z" fill="black"/>
<path fill-rule="evenodd" clip-rule="evenodd" d="M158.4 106.164L158.4 105.102L159.6 105.102L159.6 106.164L158.4 106.164Z" fill="black"/>
<path fill-rule="evenodd" clip-rule="evenodd" d="M158.4 112.893L158.4 107.227L159.6 107.227L159.6 112.893L158.4 112.893Z" fill="black"/>
<path fill-rule="evenodd" clip-rule="evenodd" d="M159 115.8C162.756 115.8 165.8 112.756 165.8 109C165.8 105.244 162.756 102.2 159 102.2C155.244 102.2 152.2 105.244 152.2 109C152.2 112.756 155.244 115.8 159 115.8ZM159 117C163.418 117 167 113.418 167 109C167 104.582 163.418 101 159 101C154.582 101 151 104.582 151 109C151 113.418 154.582 117 159 117Z" fill="black"/>
<path fill-rule="evenodd" clip-rule="evenodd" d="M108.045 102.8C104.62 102.8 101.845 105.575 101.845 109C101.845 112.424 104.62 115.2 108.045 115.2C110.328 115.2 112.324 113.965 113.401 112.125L114.436 112.73C113.154 114.924 110.772 116.4 108.045 116.4C103.958 116.4 100.645 113.086 100.645 109C100.645 104.913 103.958 101.6 108.045 101.6C112.131 101.6 115.445 104.913 115.445 109H114.245C114.245 105.575 111.469 102.8 108.045 102.8Z" fill="black"/>
<path fill-rule="evenodd" clip-rule="evenodd" d="M114.719 107.948L116.469 104.602L117.531 105.161L115.225 109.57L110.821 107.253L111.377 106.19L114.719 107.948Z" fill="black"/>
<path fill-rule="evenodd" clip-rule="evenodd" d="M7.36349 112.236C10.055 112.236 12.2369 110.054 12.2369 107.363C12.2369 104.671 10.055 102.489 7.36349 102.489C4.67196 102.489 2.49004 104.671 2.49004 107.363C2.49004 110.054 4.67196 112.236 7.36349 112.236ZM7.36349 113.436C10.7178 113.436 13.4369 110.717 13.4369 107.363C13.4369 104.008 10.7178 101.289 7.36349 101.289C4.00922 101.289 1.29004 104.008 1.29004 107.363C1.29004 110.717 4.00922 113.436 7.36349 113.436Z" fill="black"/>
<path fill-rule="evenodd" clip-rule="evenodd" d="M15.8654 116.713L10.8652 111.713L11.7138 110.864L16.7139 115.864L15.8654 116.713Z" fill="black"/>
<path fill-rule="evenodd" clip-rule="evenodd" d="M459.258 112.79L458.824 112.548L458.39 112.79L453.971 115.251V103.081H463.677V113.892L464.647 114.441V103.081V102H463.677H453.971H453V103.081V115.791V117L453.971 116.459L458.824 113.757L463.677 116.459L464.647 117V115.815L462.453 114.573L462.454 114.57L459.258 112.79Z" fill="black"/>
<path fill-rule="evenodd" clip-rule="evenodd" d="M452.259 54.2595C450.58 55.9388 450.58 58.6614 452.259 60.3407L453.089 61.17L459.17 67.2512L459.17 67.2513L466.081 60.3408C467.76 58.6615 467.76 55.9388 466.081 54.2595C464.401 52.5802 461.679 52.5802 459.999 54.2595L459.17 55.0888L458.341 54.2595C456.661 52.5802 453.939 52.5802 452.259 54.2595Z" fill="black"/>
<path fill-rule="evenodd" clip-rule="evenodd" d="M402.089 53.1285C403.768 51.4496 406.49 51.4494 408.17 53.1279L408.17 53.1285L408.999 53.9578L409.829 53.1285C411.508 51.4494 414.23 51.4494 415.909 53.1285C417.588 54.8077 417.588 57.5301 415.909 59.2092L410.769 64.3495L409.92 63.501L415.061 58.3607C416.271 57.1502 416.271 55.1876 415.061 53.9771C413.85 52.7665 411.888 52.7665 410.677 53.9771L409.848 54.8063L408.999 55.6548L408.151 54.8063L407.322 53.977C406.111 52.7665 404.148 52.7665 402.938 53.977C401.727 55.1875 401.727 57.1501 402.938 58.3607L408.999 64.422L408.999 64.422L408.999 64.422L409.001 64.4202L409.85 65.2688L409.848 65.2706L408.999 66.1191L408.999 66.119L408.999 66.1191L408.151 65.2705L402.089 59.2092C400.41 57.53 400.41 54.8076 402.089 53.1285Z" fill="black"/>
<path fill-rule="evenodd" clip-rule="evenodd" d="M359.562 52.858L359.565 62.608L358.44 62.6083L358.437 52.8583L359.562 52.858Z" fill="black"/>
<path fill-rule="evenodd" clip-rule="evenodd" d="M354.067 56.2447L359 51.3117L363.933 56.2447L363.138 57.0402L359 52.9027L354.862 57.0402L354.067 56.2447Z" fill="black"/>
<path fill-rule="evenodd" clip-rule="evenodd" d="M352.625 59.1914H351.5V60.3164V65.5664V66.6914H352.625H365.375H366.5V65.5664V60.3164V59.1914H365.375V60.3164V60.8579V65.5664H352.625V60.8579V60.3164V59.1914Z" fill="black"/>
<path fill-rule="evenodd" clip-rule="evenodd" d="M260.5 52.9004L266.598 58.9989L260.5 65.0974L259.651 64.2489L264.901 58.9989L259.651 53.7489L260.5 52.9004Z" fill="black"/>
<path fill-rule="evenodd" clip-rule="evenodd" d="M265.75 59.5996L251.5 59.5996L251.5 58.3996L265.75 58.3996L265.75 59.5996Z" fill="black"/>
<mask id="mask4_988_27797" style="mask-type:alpha" maskUnits="userSpaceOnUse" x="150" y="50" width="18" height="18">
<rect width="18" height="18" transform="matrix(-4.37114e-08 1 1 4.37114e-08 150 50)" fill="#FF0000"/>
</mask>
<g mask="url(#mask4_988_27797)">
<path fill-rule="evenodd" clip-rule="evenodd" d="M158.925 53.6523L151.712 60.8648L152.561 61.7134L158.925 55.3494L165.289 61.7134L166.137 60.8648L158.925 53.6523Z" fill="black"/>
</g>
<mask id="mask5_988_27797" style="mask-type:alpha" maskUnits="userSpaceOnUse" x="100" y="50" width="18" height="18">
<rect width="18" height="18" transform="matrix(1.19249e-08 -1 -1 -1.19249e-08 118 68)" fill="#FF0000"/>
</mask>
<g mask="url(#mask5_988_27797)">
<path fill-rule="evenodd" clip-rule="evenodd" d="M109.075 64.3477L116.288 57.1352L115.439 56.2866L109.075 62.6506L102.711 56.2866L101.863 57.1352L109.075 64.3477Z" fill="black"/>
</g>
<mask id="mask6_988_27797" style="mask-type:alpha" maskUnits="userSpaceOnUse" x="50" y="50" width="18" height="18">
<rect width="18" height="18" transform="matrix(-1 0 0 1 68 50)" fill="#FF0000"/>
</mask>
<g mask="url(#mask6_988_27797)">
<path fill-rule="evenodd" clip-rule="evenodd" d="M64.3486 58.9238L57.1361 51.7113L56.2876 52.5599L62.6516 58.9238L56.2876 65.2878L57.1361 66.1363L64.3486 58.9238Z" fill="black"/>
</g>
<mask id="mask7_988_27797" style="mask-type:alpha" maskUnits="userSpaceOnUse" x="0" y="50" width="18" height="18">
<rect y="50" width="18" height="18" fill="#FF0000"/>
</mask>
<g mask="url(#mask7_988_27797)">
<path fill-rule="evenodd" clip-rule="evenodd" d="M3.65137 58.9238L10.8634 51.7118L11.7119 52.5604L5.34842 58.9238L11.7119 65.2873L10.8634 66.1358L3.65137 58.9238Z" fill="black"/>
</g>
<path fill-rule="evenodd" clip-rule="evenodd" d="M366.5 13.9969H351.5V12.7969H366.5V13.9969Z" fill="black"/>
<path fill-rule="evenodd" clip-rule="evenodd" d="M361.068 16.3992H356.93V15.1992H361.068V16.3992Z" fill="black"/>
<path fill-rule="evenodd" clip-rule="evenodd" d="M354.222 11.3L354.938 2.7H363.075L363.792 11.3H364.996L364.179 1.5H353.834L353.018 11.3H354.222ZM352.893 12.8L352.8 13.9138H354.004H364.009H365.214L365.121 12.8H352.893Z" fill="black"/>
<path fill-rule="evenodd" clip-rule="evenodd" d="M301.089 6L301.089 2.4L304.689 2.4L304.689 3.6L302.289 3.6L302.289 6L301.089 6Z" fill="black"/>
<path fill-rule="evenodd" clip-rule="evenodd" d="M301.089 12L301.089 15.6L304.689 15.6L304.689 14.4L302.289 14.4L302.289 12L301.089 12Z" fill="black"/>
<path fill-rule="evenodd" clip-rule="evenodd" d="M316.914 6L316.914 2.4L313.314 2.4L313.314 3.6L315.714 3.6L315.714 6L316.914 6Z" fill="black"/>
<path fill-rule="evenodd" clip-rule="evenodd" d="M316.914 12L316.914 15.6L313.314 15.6L313.314 14.4L315.714 14.4L315.714 12L316.914 12Z" fill="black"/>
<path fill-rule="evenodd" clip-rule="evenodd" d="M304.09 12V6H305.29V12H304.09Z" fill="black"/>
<path fill-rule="evenodd" clip-rule="evenodd" d="M307.09 12V6H308.29V12H307.09Z" fill="black"/>
<path fill-rule="evenodd" clip-rule="evenodd" d="M310.09 12V6H311.29V12H310.09Z" fill="black"/>
<path fill-rule="evenodd" clip-rule="evenodd" d="M313.09 12V6H314.29V12H313.09Z" fill="black"/>
<path fill-rule="evenodd" clip-rule="evenodd" d="M252.147 3.07175L252.996 2.22322L265.85 15.0785C265.85 15.0786 265.85 15.079 265.426 15.5032C265.002 15.9274 265.002 15.9274 265.002 15.9273L252.147 3.07175Z" fill="black"/>
<path fill-rule="evenodd" clip-rule="evenodd" d="M264.896 2.22266L265.745 3.07118L252.995 15.8211C252.995 15.8211 252.995 15.8212 252.571 15.3969C252.146 14.9727 252.147 14.9726 252.147 14.9725L264.896 2.22266Z" fill="black"/>
<path fill-rule="evenodd" clip-rule="evenodd" d="M159 7.55039C160.436 7.55039 161.6 6.38633 161.6 4.95039C161.6 3.51445 160.436 2.35039 159 2.35039C157.564 2.35039 156.4 3.51445 156.4 4.95039C156.4 6.38633 157.564 7.55039 159 7.55039ZM159 8.75039C161.099 8.75039 162.8 7.04907 162.8 4.95039C162.8 2.85171 161.099 1.15039 159 1.15039C156.902 1.15039 155.2 2.85171 155.2 4.95039C155.2 7.04907 156.902 8.75039 159 8.75039Z" fill="black"/>
<path fill-rule="evenodd" clip-rule="evenodd" d="M152.7 11.3504H165.3V13.8004H166.5V11.3504V10.1504H165.3H152.7H151.5V11.3504V13.8004H152.7V11.3504ZM166.5 15.3004H165.3H152.7H151.5V16.5004H152.7H165.3H166.5V15.3004Z" fill="black"/>
<path fill-rule="evenodd" clip-rule="evenodd" d="M65.375 9.9375V2.4375H52.625V9.9375H51.5V1.3125H66.5V9.9375H65.375ZM57.1533 11.4375L59 14.5058L60.8467 11.4375H66.5V12.5337H61.5L59 16.6875L56.5 12.5337H51.5V11.4375H57.1533Z" fill="black"/>
</svg>
