<svg width="474" height="312" viewBox="0 0 474 312" fill="none" xmlns="http://www.w3.org/2000/svg">
<path d="M402.827 301.334H410.333V308.84M401.333 310.334L410.083 301.584" stroke="black" stroke-width="1.2"/>
<path fill-rule="evenodd" clip-rule="evenodd" d="M209.5 256L203.5 250.5L203.5 261.5L209.5 256ZM207.872 256L204.6 253.001L204.6 258.999L207.872 256Z" fill="black"/>
<path fill-rule="evenodd" clip-rule="evenodd" d="M51 255.449L61 255.449L61 256.549L51 256.549L51 255.449Z" fill="black"/>
<path fill-rule="evenodd" clip-rule="evenodd" d="M3.23333 255.1H2.1V259.9H3.23333V255.1ZM1 254V261H4.33333V254H1Z" fill="black"/>
<path fill-rule="evenodd" clip-rule="evenodd" d="M7.00018 254V252.277C7.00018 251.572 6.42845 251 5.7232 251C5.27464 251 4.85897 251.235 4.62819 251.62L3.2002 254V261H7.09718C8.58809 261 9.94875 260.151 10.6036 258.811C10.8645 258.277 11.0002 257.691 11.0002 257.097V254H7.00018ZM9.90018 255.1H5.90018V252.277C5.90018 252.179 5.82094 252.1 5.7232 252.1C5.66103 252.1 5.60342 252.133 5.57144 252.186L4.3002 254.305V259.9H7.09718C8.1679 259.9 9.14508 259.29 9.61535 258.328C9.80276 257.945 9.90018 257.524 9.90018 257.097V255.1Z" fill="black"/>
<path fill-rule="evenodd" clip-rule="evenodd" d="M455.1 204.275V207.725L459.9 209.439V202.561L455.1 204.275ZM454 203.5V208.5L461 211V201L454 203.5Z" fill="black"/>
<path fill-rule="evenodd" clip-rule="evenodd" d="M454 204.6H452.1V207.4H454V204.6ZM451 203.5V208.5H455.1V203.5H451Z" fill="black"/>
<path d="M302.5 204L309.5 204L306 209L302.5 204Z" fill="black"/>
<path fill-rule="evenodd" clip-rule="evenodd" d="M255.45 211V201H256.55V211H255.45Z" fill="black"/>
<path fill-rule="evenodd" clip-rule="evenodd" d="M251 205.449L261 205.449L261 206.549L251 206.549L251 205.449Z" fill="black"/>
<path fill-rule="evenodd" clip-rule="evenodd" d="M8.08301 202.667V201.834H3.91634V202.667H1.83301V210.167H10.1663V202.667H8.08301ZM9.49967 203.334H7.41634V202.501H4.58301V203.334H2.49967V209.501H9.49967V203.334Z" fill="black"/>
<path fill-rule="evenodd" clip-rule="evenodd" d="M5.99967 207.21C6.55196 207.21 6.99967 206.762 6.99967 206.21C6.99967 205.657 6.55196 205.21 5.99967 205.21C5.44739 205.21 4.99967 205.657 4.99967 206.21C4.99967 206.762 5.44739 207.21 5.99967 207.21ZM5.99967 207.876C6.92015 207.876 7.66634 207.13 7.66634 206.21C7.66634 205.289 6.92015 204.543 5.99967 204.543C5.0792 204.543 4.33301 205.289 4.33301 206.21C4.33301 207.13 5.0792 207.876 5.99967 207.876Z" fill="black"/>
<path fill-rule="evenodd" clip-rule="evenodd" d="M3.5 158.5H1V151H8.5V152.667H11V161H3.5V158.5ZM1.83333 151.833H7.66667V157.667H1.83333V151.833ZM8.5 153.5H10.1667V160.167H4.33333V158.5H8.5V156.417V153.5Z" fill="black"/>
<path fill-rule="evenodd" clip-rule="evenodd" d="M5.04897 107.998C6.67764 107.998 7.99793 106.678 7.99793 105.049C7.99793 103.42 6.67764 102.1 5.04897 102.1C3.4203 102.1 2.1 103.42 2.1 105.049C2.1 106.678 3.4203 107.998 5.04897 107.998ZM5.04897 109.098C7.28515 109.098 9.09793 107.285 9.09793 105.049C9.09793 102.813 7.28515 101 5.04897 101C2.81278 101 1 102.813 1 105.049C1 107.285 2.81278 109.098 5.04897 109.098Z" fill="black"/>
<path fill-rule="evenodd" clip-rule="evenodd" d="M10.6108 111.388L7.27735 108.055L8.05516 107.277L11.3886 110.61L10.6108 111.388Z" fill="black"/>
<mask id="mask0_988_27844" style="mask-type:alpha" maskUnits="userSpaceOnUse" x="150" y="50" width="12" height="12">
<rect width="12" height="12" transform="matrix(-4.37114e-08 1 1 4.37114e-08 150 50)" fill="#FF0000"/>
</mask>
<g mask="url(#mask0_988_27844)">
<path fill-rule="evenodd" clip-rule="evenodd" d="M155.95 52.2227L151.036 57.1367L151.814 57.9145L155.95 53.7783L160.086 57.9145L160.864 57.1367L155.95 52.2227Z" fill="black"/>
</g>
<mask id="mask1_988_27844" style="mask-type:alpha" maskUnits="userSpaceOnUse" x="100" y="50" width="12" height="12">
<rect width="12" height="12" transform="matrix(-4.37114e-08 -1 -1 4.37114e-08 112 62)" fill="#FF0000"/>
</mask>
<g mask="url(#mask1_988_27844)">
<path fill-rule="evenodd" clip-rule="evenodd" d="M106.05 59.7773L110.964 54.8633L110.186 54.0855L106.05 58.2217L101.914 54.0855L101.136 54.8633L106.05 59.7773Z" fill="black"/>
</g>
<mask id="mask2_988_27844" style="mask-type:alpha" maskUnits="userSpaceOnUse" x="50" y="50" width="12" height="12">
<rect x="62" y="62" width="12" height="12" transform="rotate(180 62 62)" fill="#FF0000"/>
</mask>
<g mask="url(#mask2_988_27844)">
<path fill-rule="evenodd" clip-rule="evenodd" d="M59.7773 56.0508L54.8633 60.9648L54.0855 60.187L58.2217 56.0508L54.0855 51.9145L54.8633 51.1367L59.7773 56.0508Z" fill="black"/>
</g>
<mask id="mask3_988_27844" style="mask-type:alpha" maskUnits="userSpaceOnUse" x="0" y="50" width="12" height="12">
<rect y="50" width="12" height="12" fill="#FF0000"/>
</mask>
<g mask="url(#mask3_988_27844)">
<path fill-rule="evenodd" clip-rule="evenodd" d="M2.22266 55.9492L7.13671 51.0352L7.91453 51.813L3.77829 55.9492L7.91453 60.0855L7.13671 60.8633L2.22266 55.9492Z" fill="black"/>
</g>
<path fill-rule="evenodd" clip-rule="evenodd" d="M361 9.1H351V8H361V9.1Z" fill="black"/>
<path fill-rule="evenodd" clip-rule="evenodd" d="M357.379 11.0004H354.62V9.90039H357.379V11.0004Z" fill="black"/>
<path fill-rule="evenodd" clip-rule="evenodd" d="M353.569 2.1L353.092 8H358.977L358.441 2.1H353.569ZM359.453 1H352.557L351.988 8L351.896 9.1H353H359.068H360.172L360.081 8L359.453 1Z" fill="black"/>
<path fill-rule="evenodd" clip-rule="evenodd" d="M251.326 2.152L252.103 1.37418L260.673 9.9444C260.673 9.94445 260.673 9.94468 260.284 10.3336C259.895 10.7225 259.895 10.7224 259.895 10.7224L251.326 2.152Z" fill="black"/>
<path fill-rule="evenodd" clip-rule="evenodd" d="M259.825 1.375L260.603 2.15282L252.104 10.6522L251.325 9.87493L259.825 1.375Z" fill="black"/>
</svg>
