<svg width="41" height="20" viewBox="0 0 41 20" fill="none" xmlns="http://www.w3.org/2000/svg">
<path d="M8.9449 1.2983e-06C8.34003 -0.000551292 7.74858 0.175306 7.24534 0.505335C6.7421 0.835364 6.34967 1.30474 6.11767 1.85411C5.88568 2.40348 5.82455 3.00817 5.942 3.59171C6.05945 4.17525 6.35022 4.71144 6.77753 5.13246C7.20484 5.55349 7.7495 5.84044 8.34264 5.95703C8.93578 6.07362 9.55075 6.01462 10.1098 5.78749C10.6688 5.56035 11.1468 5.17529 11.4833 4.68099C11.8199 4.18669 11.9998 3.60534 12.0003 3.01048C12.0007 2.6155 11.922 2.22432 11.7686 1.85927C11.6153 1.49422 11.3903 1.16246 11.1066 0.882908C10.8229 0.603359 10.4859 0.381505 10.115 0.230015C9.74413 0.078526 9.34652 0.000368205 8.9449 1.2983e-06Z" fill="white"/>
<path d="M3.60968 6.94924C3.14934 6.94641 2.69314 7.03479 2.2683 7.20912C1.84346 7.38345 1.45868 7.64016 1.1369 7.96392V3.01074H0V16.0003H1.15965V9.97929C1.15965 8.75777 2.41592 8.02262 3.53293 8.02262C4.86311 8.02262 5.65894 8.87517 5.65894 10.0967V16.0003H6.82143V10.0939C6.82995 8.24344 5.5481 6.94924 3.60968 6.94924Z" fill="white"/>
<path d="M16.4062 16H18.4707V12.8896H20.4736C22.5518 12.8896 23.9395 11.5498 23.9395 9.51953V9.50586C23.9395 7.47559 22.5518 6.13574 20.4736 6.13574H16.4062V16ZM19.9678 7.76953C21.1504 7.76953 21.8477 8.3916 21.8477 9.5127V9.52637C21.8477 10.6475 21.1504 11.2764 19.9678 11.2764H18.4707V7.76953H19.9678ZM27.4189 16.1162C28.4033 16.1162 29.1963 15.6992 29.5791 15.002H29.7021V16H31.6709V10.8594C31.6709 9.25293 30.543 8.30957 28.5469 8.30957C26.6533 8.30957 25.4092 9.18457 25.252 10.5039L25.2451 10.5654H27.0908L27.1045 10.5381C27.2617 10.0938 27.7197 9.84082 28.4375 9.84082C29.2578 9.84082 29.7021 10.21 29.7021 10.8594V11.4814L27.8838 11.5908C26.0107 11.7002 24.9648 12.4932 24.9648 13.8467V13.8604C24.9648 15.2275 25.9834 16.1162 27.4189 16.1162ZM26.9131 13.7373V13.7236C26.9131 13.1768 27.3301 12.8555 28.1846 12.8008L29.7021 12.7051V13.2588C29.7021 14.0518 29.0117 14.6602 28.0889 14.6602C27.3984 14.6602 26.9131 14.3115 26.9131 13.7373ZM34.3164 18.6523C36.1758 18.6523 37.167 17.9824 37.8369 15.9932L40.4004 8.47363H38.2949L36.7158 14.1748H36.5791L35 8.47363H32.8057L35.4512 16L35.3828 16.2871C35.2393 16.875 34.8291 17.1484 34.1182 17.1484C33.9336 17.1484 33.7354 17.1416 33.5986 17.1279V18.6318C33.8311 18.6455 34.084 18.6523 34.3164 18.6523Z" fill="white"/>
</svg>
