<svg width="30" height="30" viewBox="0 0 30 30" fill="none" xmlns="http://www.w3.org/2000/svg">
<path fill-rule="evenodd" clip-rule="evenodd" d="M19.1669 3.125H4H2.5V4.625V22.7188H4V4.625H19.1669V3.125ZM24.8095 11.4375V22.7188H26.3095V11.4375H24.8095ZM2.5 25.0938H4V25.375H24.8095V25.0938H26.3095V25.375V26.875H24.8095H4H2.5V25.375V25.0938Z" fill="black"/>
<path d="M6.72461 17.6718V12.328H8.73233C9.28792 12.328 9.76902 12.435 10.1756 12.6491C10.5822 12.8607 10.8941 13.167 11.1113 13.568C11.3285 13.969 11.4371 14.4463 11.4371 14.9999C11.4371 15.551 11.3285 16.027 11.1113 16.4281C10.8941 16.8291 10.5822 17.1366 10.1756 17.3507C9.76902 17.5647 9.28792 17.6718 8.73233 17.6718H6.72461ZM8.68687 16.5941C9.17175 16.5966 9.53541 16.4724 9.77785 16.2214C10.0203 15.9705 10.1415 15.5633 10.1415 14.9999C10.1415 14.434 10.019 14.0268 9.77407 13.7783C9.53163 13.5274 9.16418 13.4007 8.67172 13.3982H8.01258V16.5941H8.68687Z" fill="black"/>
<path d="M11.6189 17.6718L13.4827 12.328H15.1949L17.0511 17.6718H15.6646L15.2934 16.5277H13.3842L13.0129 17.6718H11.6189ZM14.9828 15.5682L14.3615 13.6492H14.3161L13.6948 15.5682H14.9828Z" fill="black"/>
<path d="M18.233 12.328L19.4149 14.5718H19.4604L20.6423 12.328H22.0818L20.0816 15.8634V17.6718H18.7936V15.8634L16.7859 12.328H18.233Z" fill="black"/>
<path d="M24.4394 3.125H23.4199V10.25H24.4394V3.125Z" fill="black"/>
<path d="M22.7165 6.17969H20.3574V7.19645H22.7165V6.17969Z" fill="black"/>
<path d="M27.5016 6.17957H25.1426V7.19633H27.5016V6.17957Z" fill="black"/>
</svg>
