<svg width="18" height="18" viewBox="0 0 18 18" fill="none" xmlns="http://www.w3.org/2000/svg">
  <path fill-rule="evenodd" clip-rule="evenodd" d="M8.99397 3.96357L8.19848 3.16808L8.16475 3.13435C6.48562 1.45522 3.7632 1.45522 2.08406 3.13435C0.404924 4.81349 0.404922 7.5359 2.08406 9.21504L6.20744 13.3384L7.00294 12.5429L2.87955 8.41955C1.63976 7.17975 1.63976 5.16965 2.87956 3.92985C4.11935 2.69005 6.12946 2.69005 7.36926 3.92985L8.19848 4.75907L8.99397 5.55456L9.78947 4.75907L10.6187 3.92985C11.8585 2.69005 13.8686 2.69005 15.1084 3.92985C15.1942 4.01567 15.2741 4.10517 15.348 4.19786L16.1473 3.39862C16.0705 3.30801 15.9894 3.21983 15.9039 3.13436C14.2247 1.45522 11.5023 1.45522 9.82319 3.13435L9.78947 3.16808L8.99397 3.96357ZM16.8462 4.55126L15.9534 5.44399C16.1972 6.47894 15.9155 7.61247 15.1084 8.41955L10.3753 13.1527L10.3713 13.1487L8.98486 14.5352L8.69971 14.25L8.70486 14.2449L7.92872 13.4687L7.13322 14.2642L8.19844 15.3294L8.99394 16.1249L8.99397 16.1249L8.994 16.1249L9.78432 15.3346L9.78036 15.3307L10.6819 14.4291L10.6859 14.433L15.9039 9.21505C17.1647 7.95422 17.4788 6.10516 16.8462 4.55126Z" fill="black"/>
  <path d="M17.25 1.5L3.75 15" stroke="black" stroke-width="1.125"/>
</svg>
