<svg width="30" height="30" viewBox="0 0 30 30" fill="none" xmlns="http://www.w3.org/2000/svg">
<path d="M27.68 26.3853H2V28.2335H27.68V26.3853Z" fill="black"/>
<path d="M21.2455 6.59921C21.1582 5.8117 20.8772 4.53809 19.9954 3.3617C19.1911 2.29225 17.6406 1.00891 14.84 1.00891C12.0394 1.00891 10.4889 2.29225 9.68461 3.3617C8.80277 4.53809 8.52175 5.8117 8.43453 6.59921H2V24.6956H3.55049V8.15477H8.39577V10.5367H9.94626V8.15477H19.7337V10.5367H21.2842V8.15477H26.1295V24.7053H27.68V6.59921H21.2455ZM19.6853 6.59921H9.99471C10.1013 5.87976 10.3726 5.0242 10.925 4.29503C11.7875 3.14781 13.1054 2.56447 14.84 2.56447C16.5746 2.56447 17.8925 3.14781 18.755 4.29503C19.3073 5.0242 19.5787 5.87976 19.6853 6.59921Z" fill="black"/>
<path fill-rule="evenodd" clip-rule="evenodd" d="M12.8984 15.5942C13.3159 15.1768 13.3159 14.5 12.8984 14.0825C12.481 13.6651 11.8042 13.6651 11.3867 14.0825C10.9693 14.5 10.9693 15.1768 11.3867 15.5942C11.8042 16.0117 12.481 16.0117 12.8984 15.5942ZM13.8223 16.5181C14.7499 15.5904 14.7499 14.0864 13.8223 13.1587C12.8946 12.231 11.3905 12.231 10.4629 13.1587C9.53522 14.0864 9.53522 15.5904 10.4629 16.5181C11.3905 17.4457 12.8946 17.4457 13.8223 16.5181Z" fill="black"/>
<path fill-rule="evenodd" clip-rule="evenodd" d="M17.2656 21.4706C17.6831 21.888 18.3599 21.888 18.7773 21.4706C19.1948 21.0531 19.1948 20.3763 18.7773 19.9589C18.3599 19.5414 17.6831 19.5414 17.2656 19.9589C16.8482 20.3763 16.8482 21.0531 17.2656 21.4706ZM16.3418 22.3944C17.2695 23.3221 18.7735 23.3221 19.7012 22.3944C20.6288 21.4667 20.6288 19.9627 19.7012 19.035C18.7735 18.1074 17.2695 18.1074 16.3418 19.035C15.4141 19.9627 15.4141 21.4667 16.3418 22.3944Z" fill="black"/>
<path fill-rule="evenodd" clip-rule="evenodd" d="M10.4219 21.5148L18.8203 13.1164L19.7441 14.0402L11.3457 22.4386L10.4219 21.5148Z" fill="black"/>
</svg>
