<?xml version="1.0" encoding="UTF-8"?><svg id="a" xmlns="http://www.w3.org/2000/svg" viewBox="0 0 21.93 21.93"><defs><style>.b{stroke-width:0px;}</style></defs><path class="b" d="m10.97,21.93c-1.51,0-2.93-.29-4.26-.86-1.33-.58-2.49-1.36-3.49-2.35-.99-.99-1.78-2.16-2.35-3.49-.58-1.33-.86-2.75-.86-4.26s.29-2.94.86-4.28c.58-1.33,1.36-2.5,2.35-3.48.99-.99,2.16-1.77,3.49-2.34,1.33-.58,2.75-.86,4.26-.86s2.94.29,4.28.86c1.33.58,2.5,1.36,3.48,2.34.99.99,1.77,2.15,2.34,3.48.58,1.33.86,2.76.86,4.28,0,.54-.04,1.07-.11,1.6-.08.53-.19,1.04-.34,1.54-.18-.17-.38-.32-.6-.45-.22-.13-.45-.22-.71-.29.1-.38.18-.78.23-1.17.05-.4.08-.81.08-1.23,0-2.65-.92-4.9-2.77-6.75-1.85-1.85-4.1-2.77-6.75-2.77-2.64,0-4.89.92-6.74,2.77-1.85,1.85-2.78,4.1-2.78,6.75s.93,4.89,2.78,6.74c1.85,1.85,4.1,2.78,6.74,2.78,1.08,0,2.1-.17,3.06-.51.97-.34,1.85-.8,2.65-1.4.15.19.33.37.52.53.19.16.4.3.62.4-.94.76-2,1.35-3.16,1.78-1.16.43-2.39.64-3.7.64Zm8.34-4.34c-.28,0-.52-.1-.72-.3-.2-.2-.3-.44-.3-.72s.1-.53.3-.72c.2-.19.44-.29.72-.29s.52.1.72.29c.2.19.3.43.3.72,0,.28-.1.52-.3.72-.2.2-.44.3-.72.3Zm-4.12-1.33l-4.91-5v-6.25h1.45v5.66l4.51,4.53-1.06,1.06Z"/></svg>