<svg width="30" height="30" viewBox="0 0 30 30" fill="none" xmlns="http://www.w3.org/2000/svg">
<path d="M4.02734 23.75V8.75H26.2742V23.75" stroke="black" stroke-width="1.5"/>
<path d="M3.125 26.5625H26.875" stroke="black" stroke-width="1.5"/>
<path fill-rule="evenodd" clip-rule="evenodd" d="M19.6627 12.0679V8.81329C19.6627 6.15498 17.5077 4 14.8494 4C12.1911 4 10.0361 6.15498 10.0361 8.81329V12.0679H8.53613V8.81329C8.53613 5.32656 11.3627 2.5 14.8494 2.5C18.3362 2.5 21.1627 5.32656 21.1627 8.81329V12.0679H19.6627Z" fill="black"/>
<path d="M20.625 15.9375H19.375V23.4375H20.625V15.9375Z" fill="black"/>
<path d="M18.75 19.0625H16.25V20.3125H18.75V19.0625Z" fill="black"/>
<path d="M23.75 19.0625H21.25V20.3125H23.75V19.0625Z" fill="black"/>
</svg>
