<svg width="52" height="52" viewBox="0 0 52 52" fill="none" xmlns="http://www.w3.org/2000/svg">
  <path fill-rule="evenodd" clip-rule="evenodd" d="M25.981 11.4506L23.6829 9.15255L23.5854 9.05512C18.7346 4.20428 10.8698 4.20428 6.01899 9.05512C1.16815 13.906 1.16815 21.7707 6.01898 26.6216L17.9312 38.5338L20.2293 36.2357L8.31708 24.3235C4.73545 20.7418 4.73545 14.9349 8.31709 11.3532C11.8987 7.77158 17.7057 7.77158 21.2873 11.3532L23.6829 13.7487L25.981 16.0468L28.2791 13.7487L30.6746 11.3532C34.2562 7.77159 40.0632 7.77159 43.6448 11.3532C43.8928 11.6012 44.1236 11.8599 44.3373 12.1277L46.6462 9.8188C46.4244 9.55696 46.1899 9.30214 45.9429 9.05513C41.0921 4.20429 33.2273 4.20428 28.3765 9.05512L28.2791 9.15255L25.981 11.4506ZM48.6652 13.1487L46.0862 15.7278C46.7901 18.7175 45.9763 21.992 43.6448 24.3235L29.9721 37.9962L29.9616 37.9856L25.9555 41.9917L25.1309 41.167L25.1457 41.1521L22.9038 38.9102L20.6057 41.2083L23.6828 44.2853L25.9809 46.5834L25.9809 46.5833L25.981 46.5834L28.2642 44.3003L28.2536 44.2898L30.8581 41.6853L30.8687 41.6958L45.9429 26.6216C49.5852 22.9793 50.4927 17.6377 48.6652 13.1487Z" fill="black"/>
  <path d="M49.8335 4.33301L10.8335 43.333" stroke="black" stroke-width="3.25"/>
</svg>
