<svg width="52" height="52" viewBox="0 0 52 52" fill="none" xmlns="http://www.w3.org/2000/svg">
  <path fill-rule="evenodd" clip-rule="evenodd" d="M25.9824 11.4506L23.6843 9.15255L23.5869 9.05512C18.7361 4.20428 10.8713 4.20428 6.02046 9.05512C1.16962 13.906 1.16961 21.7707 6.02045 26.6216L23.6842 44.2853L25.9823 46.5834L25.9824 46.5833L25.9825 46.5834L28.2656 44.3003L25.1323 41.167L25.1472 41.1521L8.31855 24.3235C4.73691 20.7418 4.73692 14.9349 8.31855 11.3532C11.9002 7.77158 17.7072 7.77158 21.2888 11.3532L23.6843 13.7487L25.9824 16.0468L28.2805 13.7487L30.676 11.3532C34.2577 7.77159 40.0646 7.77159 43.6463 11.3532C47.2279 14.9349 47.2279 20.7418 43.6463 24.3235L28.5721 39.3977L30.8701 41.6958L45.9444 26.6216C50.7952 21.7707 50.7952 13.906 45.9444 9.05513C41.0935 4.20429 33.2288 4.20428 28.3779 9.05512L28.2805 9.15255L25.9824 11.4506Z" fill="black"/>
</svg>
