<svg width="60" height="60" viewBox="0 0 60 60" fill="none" xmlns="http://www.w3.org/2000/svg">
<path fill-rule="evenodd" clip-rule="evenodd" d="M8.2 14.575H51.8V48.5509H54V14.575V12.375H51.8H8.2H6V14.575V48.5509H8.2V14.575ZM54 51.8008H6V54.0008H8.2H51.8H54V51.8008Z" fill="black"/>
<path fill-rule="evenodd" clip-rule="evenodd" d="M52.814 24.0984H7.17285V21.8984H52.814V24.0984Z" fill="black"/>
<path fill-rule="evenodd" clip-rule="evenodd" d="M17.4836 18L17.4836 6L19.6836 6L19.6836 18L17.4836 18Z" fill="black"/>
<path fill-rule="evenodd" clip-rule="evenodd" d="M40.3034 18L40.3034 6L42.5034 6L42.5034 18L40.3034 18Z" fill="black"/>
<path d="M24 30.5H26.2V44.5H24V30.5Z" fill="black"/>
<path d="M33 30.5H35.2V44.5H33V30.5Z" fill="black"/>
<path d="M34 36.3984L34 38.5984L25 38.5984L25 36.3984L34 36.3984Z" fill="black"/>
<path d="M45 30L45 32L37 32L37 30L45 30Z" fill="black"/>
<path d="M42 35L40 35L40 27L42 27L42 35Z" fill="black"/>
</svg>
