<svg width="64" height="64" viewBox="0 0 64 64" fill="none" xmlns="http://www.w3.org/2000/svg">
<path d="M17.5547 40.8263V20.6041H46.4436V40.8263" stroke="black" stroke-width="2"/>
<path d="M18 29H46" stroke="black" stroke-width="2"/>
<path d="M16.1113 43.7159H47.8891" stroke="black" stroke-width="2"/>
<path d="M20.4453 39.3827H26.2231" stroke="black" stroke-width="2"/>
<path d="M32 58.1587C17.6406 58.1587 6 46.5181 6 32.1587C6 19.7851 14.6436 9.43028 26.2222 6.80295M26.2222 6.80295L19 3.8125M26.2222 6.80295L23.3333 13.5625" stroke="black" stroke-width="2"/>
<path d="M32 6.34132C46.3594 6.34132 58 17.9819 58 32.3413C58 44.7149 49.3564 55.0697 37.7778 57.697M37.7778 57.697L45 60.6875M37.7778 57.697L40.6667 50.9375" stroke="black" stroke-width="2"/>
</svg>
