<svg width="64" height="64" viewBox="0 0 64 64" fill="none" xmlns="http://www.w3.org/2000/svg">
<path fill-rule="evenodd" clip-rule="evenodd" d="M8.2 18.5008H55.8V53.7506H58V18.5008V16.3008H55.8H8.2H6V18.5008V53.7506H8.2V18.5008ZM8.2 57.0006H6V59.2008H8.2H55.8H58V57.0008L55.8 57.0006H8.2Z" fill="black"/>
<path fill-rule="evenodd" clip-rule="evenodd" d="M23.5203 10.762C21.9373 12.8666 21.4012 15.4201 21.4012 17.1008L21.4012 23.4008L19.2012 23.4008L19.2012 17.1008C19.2012 15.0481 19.8351 12.0016 21.7621 9.43958C23.7291 6.8244 26.9825 4.80078 32.0012 4.80078C37.0199 4.80078 40.2733 6.8244 42.2403 9.43958C44.1673 12.0016 44.8012 15.0481 44.8012 17.1008L44.8012 23.4008L42.6012 23.4008L42.6012 17.1008C42.6012 15.4201 42.0651 12.8666 40.4821 10.762C38.9391 8.71049 36.3425 7.00078 32.0012 7.00078C27.6599 7.00078 25.0633 8.71049 23.5203 10.762Z" fill="black"/>
<path fill-rule="evenodd" clip-rule="evenodd" d="M42.0793 33.4827L31.2315 44.3305L22.9012 36.0001L24.4569 34.4445L31.2315 41.2192L40.5237 31.927L42.0793 33.4827Z" fill="black"/>
</svg>
