<svg width="64" height="64" viewBox="0 0 64 64" fill="none" xmlns="http://www.w3.org/2000/svg">
<path fill-rule="evenodd" clip-rule="evenodd" d="M32.1 7.2C18.3481 7.2 7.2 18.3481 7.2 32.1C7.2 45.8519 18.3481 57 32.1 57C36.3946 57 40.4323 55.9137 43.9564 54.0017L45.0055 55.9354C41.1673 58.0178 36.7701 59.2 32.1 59.2C17.1331 59.2 5 47.0669 5 32.1C5 17.1331 17.1331 5 32.1 5C47.0669 5 59.2 17.1331 59.2 32.1C59.2 40.3714 55.493 47.7782 49.6536 52.7473C49.3987 52.9642 49.1397 53.1765 48.8767 53.384L47.5137 51.6571C47.7554 51.4663 47.9935 51.2712 48.2278 51.0718C53.597 46.5028 57 39.6994 57 32.1C57 18.3481 45.8519 7.2 32.1 7.2Z" fill="black"/>
<path fill-rule="evenodd" clip-rule="evenodd" d="M40.0098 23L41.5795 24.5698L24.5797 41.5696C24.5796 41.5697 24.5795 41.5698 23.7947 40.7849C23.0098 40 23.0098 39.9999 23.0099 39.9999L40.0098 23Z" fill="black"/>
<path fill-rule="evenodd" clip-rule="evenodd" d="M24.0703 23L22.5005 24.5698L39.5004 41.5696C39.5005 41.5697 39.5005 41.5698 40.2854 40.7849C41.0703 40 41.0703 39.9999 41.0702 39.9999L24.0703 23Z" fill="black"/>
</svg>
