<svg width="14" height="14" viewBox="0 0 14 14" fill="none" xmlns="http://www.w3.org/2000/svg">
<path fill-rule="evenodd" clip-rule="evenodd" d="M7 12.95C10.2861 12.95 12.95 10.2861 12.95 7C12.95 3.71391 10.2861 1.05 7 1.05C3.71391 1.05 1.05 3.71391 1.05 7C1.05 10.2861 3.71391 12.95 7 12.95ZM7 14C10.866 14 14 10.866 14 7C14 3.13401 10.866 0 7 0C3.13401 0 0 3.13401 0 7C0 10.866 3.13401 14 7 14Z" fill="#999999"/>
<path d="M6.47656 3H7.52656V4.05H6.47656V3Z" fill="#999999"/>
<path d="M6.47656 5.19922H7.52656V10.2492H6.47656V5.19922Z" fill="#999999"/>
</svg>
