<svg width="60" height="60" viewBox="0 0 60 60" fill="none" xmlns="http://www.w3.org/2000/svg">
<path fill-rule="evenodd" clip-rule="evenodd" d="M8.2 39.2H51.8V46.55H54V39.2V37H51.8H8.2H6V39.2V46.55H8.2V39.2ZM54 49.8H51.8H8.2H6V52H8.2H51.8H54V49.8Z" fill="black"/>
<path fill-rule="evenodd" clip-rule="evenodd" d="M45.8 28.3992H14.2V36.9992H45.8V28.3992ZM12 26.1992V39.1992H48V26.1992H12Z" fill="black"/>
<path fill-rule="evenodd" clip-rule="evenodd" d="M33.1681 10.6394L30 4L26.8318 10.6394L19.5383 11.6008L24.8738 16.6656L23.5343 23.8992L30 20.39L36.4656 23.8992L35.1261 16.6656L40.4616 11.6008L33.1681 10.6394ZM35.6031 13.1794L31.6968 12.6645L30 9.10846L28.3031 12.6645L24.3968 13.1794L27.2544 15.8921L26.537 19.7664L30 17.8869L33.4629 19.7664L32.7455 15.8921L35.6031 13.1794Z" fill="black"/>
</svg>
