<svg width="30" height="30" viewBox="0 0 30 30" fill="none" xmlns="http://www.w3.org/2000/svg">
<path d="M6.375 3H24.0984" stroke="black" stroke-width="1.5"/>
<path d="M7.10547 5.39795V22.0788H23.265V5.39795" stroke="black" stroke-width="1.5"/>
<path d="M15 22.2874V27.031" stroke="black" stroke-width="1.5"/>
<path d="M8.80078 27L21.3114 27" stroke="black" stroke-width="1.5"/>
<path d="M23.2578 9.75049H27.3638V11.9061L23.266 17.5959" stroke="black" stroke-width="1.5"/>
<path d="M7.10547 9.75049H2.99953V11.9061L7.09732 17.5959" stroke="black" stroke-width="1.5"/>
<path d="M15.1212 9.7347L15.7611 11.3856L15.8892 11.7163L16.2433 11.736L18.0112 11.8344L16.6388 12.9531L16.3639 13.1772L16.4546 13.5201L16.9073 15.2318L15.4193 14.2723L15.1212 14.0801L14.8232 14.2723L13.3351 15.2318L13.7878 13.5201L13.8785 13.1772L13.6036 12.9531L12.2312 11.8344L13.9991 11.736L14.3532 11.7163L14.4813 11.3856L15.1212 9.7347Z" stroke="black" stroke-width="1.1"/>
</svg>
