<svg width="30" height="30" viewBox="0 0 30 30" fill="none" xmlns="http://www.w3.org/2000/svg">
<path d="M26.875 21.4706L26.875 5L14.375 5L11.25 6.76471L8.125 5L3.75 5L3.75 25L8.125 25L11.25 23.2353L14.375 25L26.875 25" stroke="black" stroke-width="1.5"/>
<path d="M11.25 9.54541L11.25 19.8484" stroke="black" stroke-width="1.5"/>
<mask id="path-3-inside-1_24515_44494" fill="white">
<path d="M16.7837 15.1659C16.4071 15.1659 16.0851 15.0838 15.8175 14.9194C15.55 14.7551 15.3468 14.5259 15.2081 14.232C15.0694 13.9381 15 13.5983 15 13.2127C15 12.824 15.071 12.4826 15.2131 12.1887C15.3551 11.8916 15.5599 11.6609 15.8274 11.4965C16.095 11.3322 16.4137 11.25 16.7837 11.25C17.1702 11.25 17.4988 11.3322 17.7697 11.4965C18.0405 11.6609 18.2453 11.89 18.3841 12.1839C18.5228 12.4779 18.5938 12.8208 18.5971 13.2127C18.5938 13.6046 18.5211 13.9475 18.3791 14.2415C18.2404 14.5354 18.0339 14.763 17.7598 14.9241C17.4889 15.0853 17.1636 15.1659 16.7837 15.1659ZM16.2089 13.1937C16.2089 13.4845 16.2585 13.7168 16.3576 13.8906C16.46 14.0613 16.602 14.1482 16.7837 14.1514C16.9786 14.1482 17.1272 14.0629 17.2296 13.8954C17.3353 13.7279 17.3882 13.5003 17.3882 13.2127C17.3882 12.9219 17.337 12.6912 17.2346 12.5205C17.1355 12.3499 16.9852 12.2645 16.7837 12.2645C16.602 12.2645 16.46 12.3515 16.3576 12.5253C16.2585 12.696 16.2089 12.9188 16.2089 13.1937ZM21.1736 11.5724H22.4915L17.5566 18.4371H16.2387L21.1736 11.5724ZM20.1628 16.7968C20.1595 16.408 20.2289 16.0667 20.3709 15.7728C20.5129 15.4757 20.7177 15.2449 20.9853 15.0806C21.2561 14.9162 21.5765 14.8341 21.9465 14.8341C22.333 14.8341 22.66 14.9162 22.9275 15.0806C23.1984 15.2449 23.4032 15.4741 23.5419 15.768C23.6806 16.0619 23.75 16.4049 23.75 16.7968C23.75 17.1887 23.679 17.5316 23.5369 17.8255C23.3982 18.1195 23.1934 18.347 22.9226 18.5082C22.6517 18.6694 22.3263 18.75 21.9465 18.75C21.5666 18.75 21.2429 18.6678 20.9754 18.5035C20.7078 18.3391 20.5047 18.11 20.3659 17.8161C20.2272 17.5221 20.1595 17.1824 20.1628 16.7968ZM21.3618 16.7968C21.3651 17.0844 21.418 17.3119 21.5204 17.4795C21.6261 17.647 21.7681 17.7323 21.9465 17.7355C22.1414 17.7323 22.29 17.6485 22.3924 17.4842C22.4948 17.3167 22.5477 17.0875 22.551 16.7968C22.5477 16.5028 22.4965 16.2721 22.3974 16.1046C22.2983 15.9371 22.148 15.8549 21.9465 15.8581C21.7615 15.8549 21.6178 15.9403 21.5154 16.1141C21.4163 16.2879 21.3651 16.5155 21.3618 16.7968Z"/>
</mask>
<path d="M15.2131 12.1887L16.3385 12.7326L16.3408 12.7278L15.2131 12.1887ZM18.5971 13.2127L19.8471 13.2232L19.8472 13.2127L19.8471 13.2022L18.5971 13.2127ZM18.3791 14.2415L17.2536 13.6976L17.2487 13.7079L18.3791 14.2415ZM17.7598 14.9241L17.1262 13.8466L17.1205 13.85L17.7598 14.9241ZM16.3576 13.8906L15.2716 14.5097L15.2785 14.5218L15.2857 14.5337L16.3576 13.8906ZM16.7837 14.1514L16.7619 15.4012L16.783 15.4016L16.804 15.4012L16.7837 14.1514ZM17.2296 13.8954L16.1725 13.2283L16.1677 13.2358L16.1631 13.2434L17.2296 13.8954ZM17.2346 12.5205L16.1536 13.1482L16.1581 13.1559L16.1627 13.1636L17.2346 12.5205ZM16.3576 12.5253L15.2805 11.8908L15.2766 11.8976L16.3576 12.5253ZM21.1736 11.5724V10.3224H20.5327L20.1586 10.8427L21.1736 11.5724ZM22.4915 11.5724L23.5065 12.302L24.9296 10.3224H22.4915V11.5724ZM17.5566 18.4371V19.6871H18.1975L18.5716 19.1667L17.5566 18.4371ZM16.2387 18.4371L15.2237 17.7075L13.8006 19.6871H16.2387V18.4371ZM20.1628 16.7968L21.4128 16.8075L21.4128 16.7968L21.4128 16.7862L20.1628 16.7968ZM20.3709 15.7728L21.4964 16.3166L21.4986 16.3119L20.3709 15.7728ZM20.9853 15.0806L20.3368 14.0119L20.331 14.0155L20.9853 15.0806ZM22.9275 15.0806L22.2733 16.1457L22.2791 16.1493L22.9275 15.0806ZM23.5369 17.8255L22.4114 17.2817L22.4065 17.292L23.5369 17.8255ZM21.3618 16.7968L20.1119 16.7821L20.1117 16.7966L20.1119 16.8111L21.3618 16.7968ZM21.5204 17.4795L20.4539 18.1314L20.4585 18.139L20.4633 18.1465L21.5204 17.4795ZM21.9465 17.7355L21.9243 18.9853L21.9455 18.9856L21.9668 18.9853L21.9465 17.7355ZM22.3924 17.4842L23.4534 18.1452L23.4589 18.1362L22.3924 17.4842ZM22.551 16.7968L23.8009 16.811L23.801 16.7969L23.8009 16.7827L22.551 16.7968ZM21.9465 15.8581L21.9251 17.1079L21.9456 17.1083L21.9661 17.1079L21.9465 15.8581ZM21.5154 16.1141L20.4384 15.4797L20.4339 15.4873L20.4295 15.495L21.5154 16.1141ZM16.7837 13.9159C16.5918 13.9159 16.5065 13.8756 16.4718 13.8543L15.1633 15.9845C15.6637 16.2919 16.2225 16.4159 16.7837 16.4159V13.9159ZM16.4718 13.8543C16.4188 13.8217 16.3774 13.7808 16.3385 13.6984L14.0777 14.7655C14.3163 15.271 14.6812 15.6884 15.1633 15.9845L16.4718 13.8543ZM16.3385 13.6984C16.2919 13.5996 16.25 13.4478 16.25 13.2127H13.75C13.75 13.7488 13.8469 14.2765 14.0777 14.7655L16.3385 13.6984ZM16.25 13.2127C16.25 12.9767 16.2926 12.8275 16.3385 12.7325L14.0876 11.6448C13.8494 12.1377 13.75 12.6712 13.75 13.2127H16.25ZM16.3408 12.7278C16.3843 12.6369 16.4296 12.5936 16.4817 12.5616L15.1732 10.4314C14.6902 10.7281 14.3259 11.1463 14.0853 11.6495L16.3408 12.7278ZM16.4817 12.5616C16.5197 12.5383 16.6031 12.5 16.7837 12.5V10C16.2244 10 15.6703 10.1261 15.1732 10.4314L16.4817 12.5616ZM16.7837 12.5C16.9918 12.5 17.0848 12.5431 17.1212 12.5652L18.4181 10.4279C17.9128 10.1213 17.3485 10 16.7837 10V12.5ZM17.1212 12.5652C17.1767 12.5989 17.2167 12.6393 17.2536 12.7175L19.5145 11.6504C19.2739 11.1408 18.9043 10.7229 18.4181 10.4279L17.1212 12.5652ZM17.2536 12.7175C17.3009 12.8176 17.3451 12.9757 17.3472 13.2232L19.8471 13.2022C19.8425 12.6659 19.7447 12.1381 19.5145 11.6504L17.2536 12.7175ZM17.3472 13.2022C17.3451 13.4458 17.3007 13.6001 17.2536 13.6976L19.5046 14.7853C19.7415 14.295 19.8425 13.7634 19.8471 13.2232L17.3472 13.2022ZM17.2487 13.7079C17.2147 13.78 17.1789 13.8156 17.1262 13.8466L18.3933 16.0017C18.889 15.7103 19.2661 15.2908 19.5095 14.775L17.2487 13.7079ZM17.1205 13.85C17.0793 13.8745 16.9848 13.9159 16.7837 13.9159V16.4159C17.3423 16.4159 17.8986 16.2962 18.399 15.9983L17.1205 13.85ZM14.9589 13.1937C14.9589 13.6095 15.0271 14.0808 15.2716 14.5097L17.4435 13.2716C17.4683 13.315 17.4714 13.3385 17.4686 13.3253C17.4656 13.3114 17.4589 13.2702 17.4589 13.1937H14.9589ZM15.2857 14.5337C15.5847 15.0321 16.102 15.3897 16.7619 15.4012L16.8054 12.9016C16.9165 12.9035 17.0572 12.9343 17.1934 13.0176C17.3247 13.098 17.3971 13.1936 17.4295 13.2475L15.2857 14.5337ZM16.804 15.4012C17.4308 15.3911 17.9724 15.0769 18.2961 14.5473L16.1631 13.2434C16.2052 13.1745 16.2863 13.0771 16.419 13.001C16.552 12.9246 16.6788 12.9029 16.7634 12.9016L16.804 15.4012ZM18.2867 14.5624C18.5632 14.1244 18.6382 13.6356 18.6382 13.2127H16.1382C16.1382 13.2466 16.1366 13.2719 16.1348 13.2896C16.133 13.3073 16.1311 13.3157 16.1309 13.3163C16.1306 13.3178 16.1387 13.2819 16.1725 13.2283L18.2867 14.5624ZM18.6382 13.2127C18.6382 12.7934 18.5672 12.312 18.3064 11.8774L16.1627 13.1636C16.1331 13.1144 16.1277 13.0844 16.1295 13.0924C16.1314 13.1013 16.1382 13.1384 16.1382 13.2127H18.6382ZM18.3156 11.8929C17.987 11.3271 17.4191 11.0145 16.7837 11.0145V13.5145C16.7043 13.5145 16.5725 13.4963 16.4303 13.4155C16.2869 13.3341 16.1992 13.2267 16.1536 13.1482L18.3156 11.8929ZM16.7837 11.0145C16.1034 11.0145 15.5777 11.3864 15.2806 11.8908L17.4346 13.1597C17.4036 13.2123 17.3304 13.3121 17.1934 13.3959C17.0503 13.4835 16.9014 13.5145 16.7837 13.5145V11.0145ZM15.2766 11.8976C15.0316 12.3195 14.9589 12.7809 14.9589 13.1937H17.4589C17.4589 13.1296 17.4649 13.0981 17.4663 13.0917C17.4675 13.0863 17.4626 13.1115 17.4386 13.1529L15.2766 11.8976ZM21.1736 12.8224H22.4915V10.3224H21.1736V12.8224ZM21.4765 10.8427L16.5417 17.7075L18.5716 19.1667L23.5065 12.302L21.4765 10.8427ZM17.5566 17.1871H16.2387V19.6871H17.5566V17.1871ZM17.2536 19.1667L22.1885 12.302L20.1586 10.8427L15.2237 17.7075L17.2536 19.1667ZM21.4128 16.7862C21.4108 16.553 21.4523 16.4078 21.4964 16.3166L19.2454 15.2289C19.0054 15.7256 18.9082 16.263 18.9128 16.8074L21.4128 16.7862ZM21.4986 16.3119C21.5421 16.221 21.5874 16.1777 21.6395 16.1457L20.331 14.0155C19.848 14.3122 19.4837 14.7304 19.2431 15.2336L21.4986 16.3119ZM21.6337 16.1493C21.6783 16.1222 21.7663 16.0841 21.9465 16.0841V13.5841C21.3868 13.5841 20.834 13.7103 20.3368 14.0119L21.6337 16.1493ZM21.9465 16.0841C22.1552 16.0841 22.2434 16.1274 22.2733 16.1457L23.5818 14.0155C23.0765 13.7051 22.5107 13.5841 21.9465 13.5841V16.0841ZM22.2791 16.1493C22.3346 16.1829 22.3746 16.2233 22.4115 16.3016L24.6723 15.2345C24.4318 14.7248 24.0622 14.307 23.576 14.0119L22.2791 16.1493ZM22.4115 16.3016C22.4569 16.3979 22.5 16.552 22.5 16.7968H25C25 16.2577 24.9043 15.726 24.6723 15.2345L22.4115 16.3016ZM22.5 16.7968C22.5 17.0376 22.4567 17.188 22.4115 17.2817L24.6624 18.3694C24.9012 17.8752 25 17.3398 25 16.7968H22.5ZM22.4065 17.292C22.3705 17.3683 22.3333 17.4043 22.2833 17.434L23.5618 19.5824C24.0535 19.2898 24.4259 18.8707 24.6674 18.3591L22.4065 17.292ZM22.2833 17.434C22.2421 17.4586 22.1476 17.5 21.9465 17.5V20C22.5051 20 23.0614 19.8802 23.5618 19.5824L22.2833 17.434ZM21.9465 17.5C21.749 17.5 21.6627 17.4587 21.6296 17.4384L20.3211 19.5686C20.8232 19.877 21.3843 20 21.9465 20V17.5ZM21.6296 17.4384C21.5766 17.4058 21.5352 17.3649 21.4964 17.2825L19.2355 18.3496C19.4741 18.8551 19.839 19.2724 20.3211 19.5686L21.6296 17.4384ZM21.4964 17.2825C21.4515 17.1875 21.4108 17.0397 21.4128 16.8075L18.9128 16.7861C18.9082 17.325 19.0029 17.8567 19.2355 18.3496L21.4964 17.2825ZM20.1119 16.8111C20.1167 17.2258 20.1917 17.7025 20.4539 18.1314L22.5869 16.8275C22.6173 16.8772 22.6233 16.9079 22.6215 16.9004C22.6207 16.897 22.6184 16.8859 22.6162 16.8658C22.6141 16.8457 22.6122 16.8182 22.6118 16.7824L20.1119 16.8111ZM20.4633 18.1465C20.7645 18.6239 21.2728 18.9737 21.9243 18.9853L21.9686 16.4857C22.0813 16.4877 22.2186 16.5187 22.3499 16.5976C22.4761 16.6734 22.5463 16.7629 22.5775 16.8124L20.4633 18.1465ZM21.9668 18.9853C22.5826 18.9753 23.1247 18.6726 23.4533 18.1452L21.3315 16.8232C21.376 16.7518 21.4587 16.6555 21.5905 16.5813C21.7219 16.5072 21.8455 16.4869 21.9262 16.4856L21.9668 18.9853ZM23.4589 18.1362C23.7222 17.7054 23.7962 17.2259 23.8009 16.811L21.301 16.7826C21.3006 16.8195 21.2987 16.8481 21.2964 16.8691C21.2942 16.8901 21.2917 16.9019 21.2908 16.9058C21.2888 16.9145 21.2947 16.8833 21.3259 16.8322L23.4589 18.1362ZM23.8009 16.7827C23.7963 16.3729 23.7268 15.8968 23.4732 15.4682L21.3215 16.7411C21.2913 16.69 21.2868 16.6608 21.2898 16.6741C21.2928 16.6876 21.3001 16.7303 21.301 16.8108L23.8009 16.7827ZM23.4732 15.4682C23.1358 14.8977 22.5575 14.5984 21.9269 14.6082L21.9661 17.1079C21.889 17.1091 21.7563 17.0937 21.6107 17.0141C21.4629 16.9333 21.3705 16.8239 21.3215 16.7411L23.4732 15.4682ZM21.9678 14.6083C21.285 14.5966 20.7441 14.9607 20.4384 15.4797L22.5925 16.7485C22.5588 16.8056 22.4814 16.9095 22.3383 16.9945C22.1898 17.0826 22.0389 17.1099 21.9251 17.1079L21.9678 14.6083ZM20.4295 15.495C20.1913 15.9129 20.1168 16.3701 20.1119 16.7821L22.6117 16.8115C22.6126 16.741 22.6193 16.7027 22.6222 16.6895C22.625 16.6771 22.6224 16.6963 22.6014 16.7332L20.4295 15.495Z" fill="black" mask="url(#path-3-inside-1_24515_44494)"/>
</svg>
