<svg width="37" height="36" viewBox="0 0 37 36" fill="none" xmlns="http://www.w3.org/2000/svg">
<path fill-rule="evenodd" clip-rule="evenodd" d="M18.3754 21.7984C20.4741 21.7984 22.1754 20.0971 22.1754 17.9984C22.1754 15.8998 20.4741 14.1984 18.3754 14.1984C16.2767 14.1984 14.5754 15.8998 14.5754 17.9984C14.5754 20.0971 16.2767 21.7984 18.3754 21.7984ZM18.3754 23.5984C21.4682 23.5984 23.9754 21.0912 23.9754 17.9984C23.9754 14.9056 21.4682 12.3984 18.3754 12.3984C15.2826 12.3984 12.7754 14.9056 12.7754 17.9984C12.7754 21.0912 15.2826 23.5984 18.3754 23.5984Z" fill="black"/>
<path d="M27.709 10.418C27.709 11.3845 26.9255 12.168 25.959 12.168C24.9925 12.168 24.209 11.3845 24.209 10.418C24.209 9.45147 24.9925 8.66797 25.959 8.66797C26.9255 8.66797 27.709 9.45147 27.709 10.418Z" fill="black"/>
<path fill-rule="evenodd" clip-rule="evenodd" d="M7.37549 5.8H29.3755C30.0382 5.8 30.5755 6.33726 30.5755 7V29C30.5755 29.2291 30.5113 29.4432 30.3999 29.6253L31.5602 31.056C32.0657 30.519 32.3755 29.7957 32.3755 29V7C32.3755 5.34315 31.0323 4 29.3755 4H7.37549C5.71863 4 4.37549 5.34315 4.37549 7V29C4.37549 30.6569 5.71863 32 7.37549 32H29.3755C29.3833 32 29.3912 32 29.399 31.9999L28.3059 30.2H7.37549C6.71275 30.2 6.17549 29.6627 6.17549 29V7C6.17549 6.33726 6.71275 5.8 7.37549 5.8Z" fill="black"/>
</svg>
