<svg width="36" height="36" viewBox="0 0 36 36" fill="none" xmlns="http://www.w3.org/2000/svg">
<path fill-rule="evenodd" clip-rule="evenodd" d="M31.2 18C31.2 10.7098 25.2902 4.79999 18 4.8C10.7098 4.8 4.8 10.7098 4.8 18C4.8 25.2902 10.7098 31.2 18 31.2C25.2902 31.2 31.2 25.2902 31.2 18ZM33 18C33 9.71573 26.2843 3 18 3C9.71573 3 3 9.71573 3 18C3 26.2843 9.71573 33 18 33C26.2843 33 33 26.2843 33 18Z" fill="black"/>
<path fill-rule="evenodd" clip-rule="evenodd" d="M14.5 12H16.3V12L22.5 12V13.8L16.3 13.8V17H21.5V18.8L16.3 18.8V24H14.5V18.8V17V13.8V12V12Z" fill="black"/>
</svg>
