<svg width="64" height="64" viewBox="0 0 64 64" fill="none" xmlns="http://www.w3.org/2000/svg">
<path d="M10.8672 55.8197V8.10938H51.4062V55.8197H10.8672Z" stroke="black" stroke-width="2" stroke-miterlimit="10"/>
<path d="M10.8672 55.887V20.3906H51.4062V55.887H10.8672Z" stroke="black" stroke-width="2" stroke-miterlimit="10"/>
<path d="M18.2144 16.8898C19.4417 16.8898 20.4366 15.8948 20.4366 14.6675C20.4366 13.4402 19.4417 12.4453 18.2144 12.4453C16.9871 12.4453 15.9922 13.4402 15.9922 14.6675C15.9922 15.8948 16.9871 16.8898 18.2144 16.8898Z" stroke="black" stroke-width="2" stroke-miterlimit="10"/>
<path d="M45.3828 14.7109H47.3508" stroke="black" stroke-width="2" stroke-miterlimit="10"/>
<path d="M41.4453 14.7109H43.4133" stroke="black" stroke-width="2" stroke-miterlimit="10"/>
<path d="M31.1628 44.1772C34.8685 44.1772 37.8725 41.1731 37.8725 37.4675C37.8725 33.7618 34.8685 30.7578 31.1628 30.7578C27.4571 30.7578 24.4531 33.7618 24.4531 37.4675C24.4531 41.1731 27.4571 44.1772 31.1628 44.1772Z" stroke="black" stroke-width="2" stroke-miterlimit="10"/>
<path d="M18.0938 41.0605H20.4843C22.0292 45.5589 26.2573 48.8037 31.2497 48.8037C37.5431 48.8037 42.6494 43.6579 42.6494 37.3159C42.6494 30.9739 37.5431 25.8281 31.2497 25.8281C26.5256 25.8281 22.4764 28.7206 20.7445 32.8421C20.6469 33.0797 20.5656 33.3255 20.4843 33.5631H18.0938" stroke="black" stroke-width="2" stroke-miterlimit="10"/>
<rect x="8.88281" y="52.2969" width="44.507" height="2.58065" fill="white"/>
</svg>
