<svg width="64" height="64" viewBox="0 0 64 64" fill="none" xmlns="http://www.w3.org/2000/svg">
<path d="M15.4766 48H16.6484V46.1562H17.6641C18.9688 46.1562 19.7188 45.3789 19.7188 44.25C19.7188 43.1367 18.9805 42.3438 17.6953 42.3438H15.4766V48ZM16.6484 45.2109V43.3047H17.4766C18.1719 43.3086 18.5117 43.6875 18.5078 44.25C18.5117 44.8203 18.1719 45.2109 17.4766 45.2109H16.6484ZM20.4609 48H24.0703V47.0312H21.6328V42.3438H20.4609V48ZM28.3281 42.3438V45.9219C28.332 46.5742 27.8711 47.043 27.1641 47.0469C26.4648 47.043 26.0039 46.5742 26 45.9219V42.3438H24.8281V46.0156C24.8281 47.2539 25.7578 48.082 27.1641 48.0781C28.5664 48.082 29.5078 47.2539 29.5078 46.0156V42.3438H28.3281ZM33.5312 43.9609H34.6562C34.6406 42.9609 33.8164 42.2656 32.5625 42.2656C31.3242 42.2656 30.418 42.9492 30.4219 43.9766C30.4219 44.8047 31.0078 45.2812 31.9609 45.5156L32.5781 45.6641C33.1953 45.8164 33.5469 45.9961 33.5469 46.3828C33.5469 46.8047 33.1484 47.0938 32.5312 47.0938C31.9062 47.0938 31.4531 46.8047 31.4141 46.2344H30.2734C30.3086 47.4492 31.1797 48.082 32.5469 48.0781C33.9258 48.082 34.7305 47.418 34.7344 46.3828C34.7305 45.4414 34.0078 44.9492 33.0391 44.7266L32.5312 44.6016C32.043 44.4922 31.6211 44.3086 31.625 43.8984C31.6289 43.5234 31.9609 43.25 32.5547 43.25C33.1289 43.25 33.4844 43.5117 33.5312 43.9609Z" fill="black"/>
<path d="M15.2578 27.3125H16.9922V32H18.1562V27.3125H19.8906V26.3438H15.2578V27.3125ZM20.6172 32H21.7891V29.6562H24.2422V32H25.4219V26.3438H24.2422V28.6875H21.7891V26.3438H20.6172V32ZM26.375 32H30.1797V31.0312H27.5469V29.6562H29.9766V28.6875H27.5469V27.3125H30.1719V26.3438H26.375V32Z" fill="black"/>
<path d="M9.5 36.5H35.5" stroke="black" stroke-width="2"/>
<path d="M53.5 49V9H9.5V54.5H53.5" stroke="black" stroke-width="2"/>
<path d="M40 20H36" stroke="black" stroke-width="2"/>
<path d="M50 20H46" stroke="black" stroke-width="2"/>
<path d="M43 14V26" stroke="black" stroke-width="2"/>
</svg>
