<svg width="120" height="120" viewBox="0 0 120 120" fill="none" xmlns="http://www.w3.org/2000/svg">
<path fill-rule="evenodd" clip-rule="evenodd" d="M35.5 42H84.5V74.75H87.5V42V39H84.5H35.5H32.5V42V74.75H35.5V42ZM87.5 78H84.5H35.5H32.5V81H35.5H84.5H87.5V78Z" fill="black"/>
<path d="M32.5 52.6016H86.5756V55.6016H32.5V52.6016Z" fill="black"/>
<path d="M39.5098 71.6992H48.5224V74.6992H39.5098V71.6992Z" fill="black"/>
<path fill-rule="evenodd" clip-rule="evenodd" d="M103.5 60C103.5 35.9756 84.0244 16.5 60 16.5V13.5C85.6812 13.5 106.5 34.3188 106.5 60C106.5 81.9473 91.2965 100.34 70.8487 105.227L70.1513 102.31C89.2799 97.7374 103.5 80.5275 103.5 60ZM48.8823 17.9333C30.2427 22.8459 16.5 39.82 16.5 60C16.5 84.0244 35.9756 103.5 60 103.5V106.5C34.3188 106.5 13.5 85.6812 13.5 60C13.5 38.4239 28.1936 20.2835 48.1177 15.0323L48.8823 17.9333Z" fill="black"/>
<path fill-rule="evenodd" clip-rule="evenodd" d="M46.9087 26.2891L44.2507 24.8981L48.5682 16.6477L40.3178 12.3302L41.7087 9.67212L52.6172 15.3806L46.9087 26.2891Z" fill="black"/>
<path fill-rule="evenodd" clip-rule="evenodd" d="M72.6045 94.2148L75.2625 95.6058L70.945 103.856L79.1954 108.174L77.8044 110.832L66.896 105.123L72.6045 94.2148Z" fill="black"/>
</svg>
