<svg width="40" height="40" viewBox="0 0 40 40" fill="none" xmlns="http://www.w3.org/2000/svg">
<path d="M11.5996 12.3887H13.8641V27.6952H11.5996L11.5996 12.3887Z" fill="black"/>
<path fill-rule="evenodd" clip-rule="evenodd" d="M9.33255 5.73438L12.6659 7.64769L15.9992 5.73438L35.4656 5.73438L37.7323 5.73438V8.00104V28.6942H35.4656L35.4656 8.00104L16.6035 8.00104L13.7943 9.61353L12.6659 10.2612L11.5375 9.61353L8.72826 8.00104H4.53229L4.53229 32.001H8.72826L11.5375 30.3886L12.6659 29.7409L13.7943 30.3886L16.6035 32.001H30.4055V32.0217H37.7323V34.2677H35.4656H15.9992L12.6659 32.3544L9.33255 34.2677H4.53229H2.26562L2.26563 32.001L2.26563 8.00104L2.26563 5.73438L4.53229 5.73438L9.33255 5.73438Z" fill="#C4C4C4"/>
<path fill-rule="evenodd" clip-rule="evenodd" d="M12.6659 10.2612L8.72826 8.00104H4.53229L4.53229 32.001H8.72826L12.6659 29.7409L16.6035 32.001H30.4055V32.0217H37.7323V34.2677H15.9992L12.6659 32.3544L9.33255 34.2677H2.26562V5.73438H9.33255L12.6659 7.64769L15.9992 5.73438H37.7323V28.6942H35.4656L35.4656 8.00104L16.6035 8.00104L12.6659 10.2612Z" fill="black"/>
<path d="M23 16L19 20M19 20L23 24M19 20H32" stroke="black" stroke-width="2.3"/>
</svg>
