<svg width="14" height="14" viewBox="0 0 14 14" fill="none" xmlns="http://www.w3.org/2000/svg">
<path fill-rule="evenodd" clip-rule="evenodd" d="M7 12.95C10.2861 12.95 12.95 10.2861 12.95 7C12.95 3.71391 10.2861 1.05 7 1.05C3.71391 1.05 1.05 3.71391 1.05 7C1.05 10.2861 3.71391 12.95 7 12.95ZM7 14C10.866 14 14 10.866 14 7C14 3.13401 10.866 0 7 0C3.13401 0 0 3.13401 0 7C0 10.866 3.13401 14 7 14Z" fill="#333333"/>
<path fill-rule="evenodd" clip-rule="evenodd" d="M7.00156 4.19844C6.31362 4.19844 5.77656 4.74042 5.77656 5.38384H4.72656C4.72656 4.138 5.75651 3.14844 7.00156 3.14844C8.24662 3.14844 9.27656 4.138 9.27656 5.38384C9.27656 6.44924 8.52337 7.32721 7.52656 7.5592V8.92344H6.47656V6.56925H7.00156C7.6895 6.56925 8.22656 6.02727 8.22656 5.38384C8.22656 4.74042 7.6895 4.19844 7.00156 4.19844Z" fill="#333333"/>
<path d="M6.47656 9.80078H7.52656V10.8508H6.47656V9.80078Z" fill="#333333"/>
</svg>
