<svg width="36" height="36" viewBox="0 0 36 36" fill="none" xmlns="http://www.w3.org/2000/svg">
<path fill-rule="evenodd" clip-rule="evenodd" d="M31.2 18C31.2 10.7098 25.2902 4.79999 18 4.8C10.7098 4.8 4.8 10.7098 4.8 18C4.8 25.2902 10.7098 31.2 18 31.2C25.2902 31.2 31.2 25.2902 31.2 18ZM33 18C33 9.71573 26.2843 3 18 3C9.71573 3 3 9.71573 3 18C3 26.2843 9.71573 33 18 33C26.2843 33 33 26.2843 33 18Z" fill="black"/>
<path d="M18.2969 23.8359C21.3047 23.8359 23.2266 21.9688 23.2266 19.0547V17.6484H18.5469V19.1875H21.25L21.2422 19.4219C21.2188 21.0234 20.0469 22.0938 18.3281 22.0938C16.3203 22.0938 15.0547 20.4922 15.0547 17.9062V17.8906C15.0547 15.3438 16.2969 13.7422 18.2656 13.7422C19.7109 13.7422 20.7422 14.4609 21.1094 15.6953L21.1328 15.7734H23.1328L23.125 15.6953C22.7422 13.4922 20.8672 12 18.2656 12C15.0547 12 13 14.3047 13 17.9062V17.9219C13 21.5625 15.0313 23.8359 18.2969 23.8359Z" fill="black"/>
</svg>
