<svg width="24" height="24" viewBox="0 0 24 24" fill="none" xmlns="http://www.w3.org/2000/svg">
<path d="M18.0352 15.3008C18.0039 14.9857 17.8698 14.7409 17.6328 14.5664C17.3958 14.3919 17.0742 14.3047 16.668 14.3047C16.3919 14.3047 16.1589 14.3437 15.9688 14.4219C15.7786 14.4974 15.6328 14.6029 15.5313 14.7383C15.4323 14.8737 15.3828 15.0273 15.3828 15.1992C15.3776 15.3424 15.4076 15.4674 15.4727 15.5742C15.5404 15.681 15.6328 15.7734 15.75 15.8516C15.8672 15.9271 16.0026 15.9935 16.1562 16.0508C16.3099 16.1055 16.474 16.1523 16.6484 16.1914L17.3672 16.3633C17.7161 16.4414 18.0365 16.5456 18.3281 16.6758C18.6198 16.806 18.8724 16.9661 19.0859 17.1562C19.2995 17.3464 19.4648 17.5703 19.582 17.8281C19.7018 18.0859 19.763 18.3815 19.7656 18.7148C19.763 19.2044 19.638 19.6289 19.3906 19.9883C19.1458 20.3451 18.7917 20.6224 18.3281 20.8203C17.8672 21.0156 17.3112 21.1133 16.6602 21.1133C16.0143 21.1133 15.4518 21.0143 14.9727 20.8164C14.4961 20.6185 14.1237 20.3255 13.8555 19.9375C13.5898 19.5469 13.4505 19.0638 13.4375 18.4883H15.0742C15.0924 18.7565 15.1693 18.9805 15.3047 19.1602C15.4427 19.3372 15.6263 19.4714 15.8555 19.5625C16.0872 19.651 16.349 19.6953 16.6406 19.6953C16.9271 19.6953 17.1758 19.6536 17.3867 19.5703C17.6003 19.487 17.7656 19.3711 17.8828 19.2227C18 19.0742 18.0586 18.9036 18.0586 18.7109C18.0586 18.5312 18.0052 18.3802 17.8984 18.2578C17.7943 18.1354 17.6406 18.0312 17.4375 17.9453C17.237 17.8594 16.9909 17.7812 16.6992 17.7109L15.8281 17.4922C15.1536 17.3281 14.6211 17.0716 14.2305 16.7227C13.8398 16.3737 13.6458 15.9036 13.6484 15.3125C13.6458 14.8281 13.7747 14.4049 14.0352 14.043C14.2982 13.681 14.6589 13.3984 15.1172 13.1953C15.5755 12.9922 16.0964 12.8906 16.6797 12.8906C17.2734 12.8906 17.7917 12.9922 18.2344 13.1953C18.6797 13.3984 19.026 13.681 19.2734 14.043C19.5208 14.4049 19.6484 14.8242 19.6562 15.3008H18.0352Z" fill="black"/>
<path d="M10 20H5.01396V10.9313H1L5.24763 3H8.89447L9.02137 3.41249C9.47746 4.90275 10.5994 6 12 6C13.3996 6 14.7735 4.90275 15.231 3.41202L15.3575 3H19.0146L23 11H18V9.5H20.5L18.5 4.5H16C15.2953 6.25377 13.7827 7.5 12 7.5C10.2164 7.5 8.7038 6.25377 8 4.5H6L3.5 9.5H6.5V18.5H10V20Z" fill="#010101"/>
<path d="M12 9.5769C12.2761 9.5769 12.5 9.35092 12.5 9.07214C12.5 8.79337 12.2761 8.56738 12 8.56738C11.7239 8.56738 11.5 8.79337 11.5 9.07214C11.5 9.35092 11.7239 9.5769 12 9.5769Z" fill="#010101"/>
<path d="M12 11.5965C12.2761 11.5965 12.5 11.3705 12.5 11.0917C12.5 10.8129 12.2761 10.5869 12 10.5869C11.7239 10.5869 11.5 10.8129 11.5 11.0917C11.5 11.3705 11.7239 11.5965 12 11.5965Z" fill="#010101"/>
</svg>
