<svg width="60" height="60" viewBox="0 0 60 60" fill="none" xmlns="http://www.w3.org/2000/svg">
<path fill-rule="evenodd" clip-rule="evenodd" d="M33.6163 10.0603L31.2516 7.7727C30.5538 7.09764 29.4464 7.09764 28.7486 7.7727L26.3839 10.0603C25.0095 11.3899 23.0983 12.0109 21.2048 11.7431L17.9471 11.2823C16.9858 11.1463 16.0899 11.7973 15.9221 12.7536L15.3537 15.9941C15.0233 17.8777 13.8421 19.5035 12.1528 20.3998L9.24648 21.9418C8.38883 22.3968 8.04661 23.4501 8.47299 24.3224L9.91788 27.2782C10.7577 28.9962 10.7577 31.0057 9.91788 32.7238L8.47299 35.6796C8.04661 36.5519 8.38883 37.6051 9.24648 38.0602L12.1528 39.6022C13.8421 40.4985 15.0233 42.1242 15.3537 44.0078L15.9221 47.2484C16.0899 48.2047 16.9858 48.8557 17.9471 48.7197L21.2048 48.2589C23.0983 47.9911 25.0095 48.6121 26.3839 49.9417L28.7486 52.2293C29.4464 52.9043 30.5538 52.9043 31.2516 52.2293L33.6163 49.9417C34.9907 48.6121 36.9019 47.9911 38.7954 48.2589L42.053 48.7197C43.0144 48.8557 43.9103 48.2047 44.0781 47.2484L44.6465 44.0078C44.9769 42.1242 46.1581 40.4985 47.8474 39.6022L50.7537 38.0602C51.6114 37.6051 51.9536 36.5519 51.5272 35.6796L50.0823 32.7238C49.2425 31.0057 49.2425 28.9962 50.0823 27.2782L51.5272 24.3223C51.9536 23.4501 51.6114 22.3968 50.7537 21.9418L47.8474 20.3998C46.1581 19.5035 44.9769 17.8777 44.6465 15.9941L44.0781 12.7536C43.9103 11.7973 43.0144 11.1463 42.053 11.2823L38.7954 11.7431C36.9019 12.0109 34.9907 11.3899 33.6163 10.0603ZM32.7813 6.19151C31.2306 4.69137 28.7696 4.69137 27.2189 6.19151L24.8543 8.47907C23.9675 9.33691 22.7345 9.73754 21.5129 9.56475L18.2553 9.10398C16.119 8.80181 14.128 10.2483 13.7552 12.3735L13.1868 15.614C12.9736 16.8293 12.2116 17.8781 11.1217 18.4564L8.21536 19.9984C6.30946 21.0096 5.54898 23.3502 6.4965 25.2885L7.94139 28.2443C8.48322 29.3528 8.48322 30.6492 7.94139 31.7577L6.4965 34.7135C5.54898 36.6518 6.30946 38.9924 8.21537 40.0036L11.1217 41.5456C12.2116 42.1239 12.9736 43.1727 13.1868 44.388L13.7552 47.6285C14.128 49.7536 16.119 51.2002 18.2553 50.898L21.5129 50.4372C22.7345 50.2644 23.9675 50.6651 24.8543 51.5229L27.2189 53.8105C28.7696 55.3106 31.2306 55.3106 32.7813 53.8105L35.1459 51.5229C36.0327 50.6651 37.2657 50.2644 38.4873 50.4372L41.7449 50.898C43.8812 51.2002 45.8722 49.7536 46.245 47.6285L46.8134 44.388C47.0266 43.1727 47.7886 42.1239 48.8785 41.5456L51.7848 40.0036C53.6907 38.9924 54.4512 36.6518 53.5037 34.7135L52.0588 31.7577C51.517 30.6492 51.517 29.3528 52.0588 28.2443L53.5037 25.2885C54.4512 23.3502 53.6907 21.0096 51.7848 19.9984L48.8785 18.4564C47.7886 17.8781 47.0266 16.8293 46.8134 15.614L46.245 12.3735C45.8722 10.2483 43.8812 8.80181 41.7449 9.10398L38.4873 9.56475C37.2657 9.73754 36.0327 9.33691 35.1459 8.47907L32.7813 6.19151Z" fill="black"/>
<path fill-rule="evenodd" clip-rule="evenodd" d="M29.9999 15.6023C22.047 15.6023 15.5999 22.0494 15.5999 30.0023C15.5999 37.9552 22.047 44.4023 29.9999 44.4023C32.4844 44.4023 34.8188 43.7741 36.8563 42.6687L37.9054 44.6024C35.5539 45.8782 32.8598 46.6023 29.9999 46.6023C20.832 46.6023 13.3999 39.1703 13.3999 30.0023C13.3999 20.8344 20.832 13.4023 29.9999 13.4023C39.1678 13.4023 46.5999 20.8344 46.5999 30.0023C46.5999 35.0691 44.3286 39.6065 40.7524 42.6496C40.5963 42.7825 40.4377 42.9125 40.2766 43.0396L38.9136 41.3127C39.0534 41.2023 39.1911 41.0895 39.3267 40.9741C42.4326 38.3311 44.3999 34.397 44.3999 30.0023C44.3999 22.0494 37.9528 15.6023 29.9999 15.6023Z" fill="black"/>
<path fill-rule="evenodd" clip-rule="evenodd" d="M32.8802 26.0358L30.0001 20L27.1199 26.0358L20.4895 26.9098L25.3399 31.5142L24.1222 38.0902L30.0001 34.9L35.8779 38.0902L34.6602 31.5142L39.5106 26.9098L32.8802 26.0358ZM34.6522 28.4884L31.4089 28.0609L30.0001 25.1085L28.5912 28.0609L25.3479 28.4884L27.7205 30.7407L27.1249 33.9573L30.0001 32.3969L32.8752 33.9573L32.2796 30.7407L34.6522 28.4884Z" fill="black"/>
</svg>
