<svg width="36" height="36" viewBox="0 0 36 36" fill="none" xmlns="http://www.w3.org/2000/svg">
<path fill-rule="evenodd" clip-rule="evenodd" d="M31.2 18C31.2 10.7098 25.2902 4.79999 18 4.8C10.7098 4.8 4.8 10.7098 4.8 18C4.8 25.2902 10.7098 31.2 18 31.2C25.2902 31.2 31.2 25.2902 31.2 18ZM33 18C33 9.71573 26.2843 3 18 3C9.71573 3 3 9.71573 3 18C3 26.2843 9.71573 33 18 33C26.2843 33 33 26.2843 33 18Z" fill="black"/>
<path d="M17.9297 23.9141C20.6328 23.9141 22.3281 22.5391 22.3281 20.3438V20.3359C22.3281 18.6328 21.3359 17.6797 18.9609 17.1797L17.75 16.9219C16.3438 16.625 15.7734 16.125 15.7734 15.3281V15.3203C15.7734 14.3594 16.6641 13.7734 17.9141 13.7734C19.2031 13.7656 20.0391 14.3906 20.1797 15.2656L20.1953 15.3594H22.125L22.1172 15.2578C21.9766 13.4453 20.4219 12.0781 17.9219 12.0781C15.4844 12.0781 13.75 13.4375 13.75 15.4531V15.4609C13.75 17.1406 14.75 18.2188 17.0547 18.7031L18.2656 18.9531C19.7188 19.2656 20.3047 19.7578 20.3047 20.5703V20.5781C20.3047 21.5469 19.3516 22.2188 17.9922 22.2188C16.5625 22.2188 15.5547 21.5938 15.4609 20.6484L15.4531 20.5703H13.5L13.5078 20.6797C13.6484 22.625 15.3125 23.9141 17.9297 23.9141Z" fill="black"/>
</svg>
