<svg width="60" height="60" viewBox="0 0 60 60" fill="none" xmlns="http://www.w3.org/2000/svg">
<path d="M18.4121 17.25H20.6121V23.6874H18.4121L18.4121 17.25Z" fill="black"/>
<path d="M18.4121 26.25H20.6121V32.6874H18.4121L18.4121 26.25Z" fill="black"/>
<path d="M18.4121 35.25H20.6121V41.6874H18.4121L18.4121 35.25Z" fill="black"/>
<path fill-rule="evenodd" clip-rule="evenodd" d="M14.6519 9L19.4416 11.7493L24.2313 9H53.2599L55.4599 9V11.2L55.4599 44.55H53.2599L53.2599 11.2L24.8179 11.2L20.5368 13.6573L19.4416 14.2859L18.3464 13.6573L14.0654 11.2L6.69732 11.2L6.69732 47.8H14.0654L18.3464 45.3427L19.4416 44.7141L20.5368 45.3427L24.8179 47.8L45.9999 47.8L55.4599 47.8V50L53.2599 50H24.2313L19.4416 47.2507L14.6519 50H6.69732H4.49731V47.8L4.49732 11.2L4.49732 9H6.69732H14.6519Z" fill="#C4C4C4"/>
<path fill-rule="evenodd" clip-rule="evenodd" d="M19.4416 14.2859L14.0654 11.2L6.69732 11.2L6.69732 47.8H14.0654L19.4416 44.7141L24.8179 47.8L55.4599 47.8V50L24.2313 50L19.4416 47.2507L14.6519 50H4.49731L4.49732 9H14.6519L19.4416 11.7493L24.2313 9L55.4599 9L55.4599 44.55H53.2599L53.2599 11.2L24.8179 11.2L19.4416 14.2859Z" fill="black"/>
<path fill-rule="evenodd" clip-rule="evenodd" d="M33.9296 25.929C34.6326 25.2261 34.6326 24.0864 33.9296 23.3835C33.2267 22.6805 32.087 22.6805 31.3841 23.3835C30.6811 24.0864 30.6811 25.2261 31.3841 25.929C32.087 26.632 33.2267 26.632 33.9296 25.929ZM35.4853 27.4847C37.0474 25.9226 37.0474 23.3899 35.4853 21.8278C33.9232 20.2657 31.3905 20.2657 29.8284 21.8278C28.2663 23.3899 28.2663 25.9226 29.8284 27.4847C31.3905 29.0468 33.9232 29.0468 35.4853 27.4847Z" fill="black"/>
<path fill-rule="evenodd" clip-rule="evenodd" d="M41.2834 35.8281C41.9863 36.531 43.126 36.531 43.8289 35.8281C44.5319 35.1251 44.5319 33.9854 43.8289 33.2825C43.126 32.5796 41.9863 32.5796 41.2834 33.2825C40.5804 33.9854 40.5804 35.1251 41.2834 35.8281ZM39.7277 37.3837C41.2898 38.9458 43.8225 38.9458 45.3846 37.3837C46.9467 35.8216 46.9467 33.289 45.3846 31.7269C43.8225 30.1648 41.2898 30.1648 39.7277 31.7269C38.1656 33.289 38.1656 35.8216 39.7277 37.3837Z" fill="black"/>
<path fill-rule="evenodd" clip-rule="evenodd" d="M29.7573 35.8984L43.8995 21.7563L45.4551 23.312L31.313 37.4541L29.7573 35.8984Z" fill="black"/>
</svg>
