<svg width="36" height="36" viewBox="0 0 36 36" fill="none" xmlns="http://www.w3.org/2000/svg">
<path fill-rule="evenodd" clip-rule="evenodd" d="M31.2 18C31.2 10.7098 25.2902 4.79999 18 4.8C10.7098 4.8 4.8 10.7098 4.8 18C4.8 25.2902 10.7098 31.2 18 31.2C25.2902 31.2 31.2 25.2902 31.2 18ZM33 18C33 9.71573 26.2843 3 18 3C9.71573 3 3 9.71573 3 18C3 26.2843 9.71573 33 18 33C26.2843 33 33 26.2843 33 18Z" fill="black"/>
<path d="M23.2998 18L17.9965 23.3033L12.6932 18L17.9965 12.6967L23.2998 18Z" fill="black"/>
</svg>
