<svg width="64" height="64" viewBox="0 0 64 64" fill="none" xmlns="http://www.w3.org/2000/svg">
<path d="M9.19922 45.5V15H54.7992V45.5" stroke="black" stroke-width="2"/>
<path d="M9 27H55" stroke="black" stroke-width="2"/>
<path d="M8 49H56" stroke="black" stroke-width="2"/>
<path d="M14 44L22 44" stroke="black" stroke-width="2"/>
<circle cx="50" cy="44" r="11" fill="white" stroke="black" stroke-width="2"/>
<path d="M46.5771 49.0039H48.4307L49.3384 45.0176H50.5571L51.4648 49.0039H53.3184L54.2578 45.0176H55.6543V43.7988H54.5498L55.4893 39.8125H53.7373L52.9185 43.7988H51.6807L50.7666 39.8125H49.1289L48.2148 43.7988H46.9834L46.1582 39.8125H44.4062L45.3457 43.7988H44.2412V45.0176H45.6377L46.5771 49.0039ZM47.231 45.0176H47.9355L47.6055 46.4521H47.5293L47.231 45.0176ZM49.6177 43.7988L49.916 42.4785H49.9795L50.2778 43.7988H49.6177ZM51.96 45.0176H52.6646L52.3662 46.4648H52.29L51.96 45.0176Z" fill="black"/>
</svg>
