<svg width="24" height="24" viewBox="0 0 24 24" fill="none" xmlns="http://www.w3.org/2000/svg">
<path d="M12.75 8.49805L12.75 17.498L11.25 17.498L11.25 8.49805L12.75 8.49805Z" fill="white"/>
<path fill-rule="evenodd" clip-rule="evenodd" d="M4.5 8.99622H19.5V17.498H21V8.99622V7.49622H19.5H4.5H3V8.99622V17.498H4.5V8.99622ZM21 19.498H19.5H4.5H3V20.998H4.5H19.5H21V19.498Z" fill="white"/>
<path fill-rule="evenodd" clip-rule="evenodd" d="M5.75 2.99805V3.00002V7.90005H7.25V4.58085L11.8504 8.33787L11.9686 8.4856L12.0003 8.46027L12.0256 8.48094L12.1221 8.36279L16.75 4.65892V7.99807H18.25V3.09804V2.99805H16.4247L12.0098 6.5314L7.68329 2.99805H5.75Z" fill="white"/>
</svg>
