<svg width="36" height="36" viewBox="0 0 36 36" fill="none" xmlns="http://www.w3.org/2000/svg">
<path fill-rule="evenodd" clip-rule="evenodd" d="M31.2 18C31.2 10.7098 25.2902 4.79999 18 4.8C10.7098 4.8 4.8 10.7098 4.8 18C4.8 25.2902 10.7098 31.2 18 31.2C25.2902 31.2 31.2 25.2902 31.2 18ZM33 18C33 9.71573 26.2843 3 18 3C9.71573 3 3 9.71573 3 18C3 26.2843 9.71573 33 18 33C26.2843 33 33 26.2843 33 18Z" fill="black"/>
<path fill-rule="evenodd" clip-rule="evenodd" d="M16.3 24L16.3 19.5H16.3002H19.2502C21.3213 19.5 23.0002 17.8211 23.0002 15.75C23.0002 13.6789 21.3213 12 19.2502 12H16.3002H16.3H14.5002H14.5L14.5 24H16.3ZM16.3002 13.8H19.2502C20.3272 13.8 21.2002 14.673 21.2002 15.75C21.2002 16.827 20.3272 17.7 19.2502 17.7H16.3002V13.8Z" fill="black"/>
</svg>
