<svg width="64" height="64" viewBox="0 0 64 64" fill="none" xmlns="http://www.w3.org/2000/svg">
<path d="M9.19922 45.5V15H54.7992V45.5" stroke="black" stroke-width="2"/>
<path d="M9 27H55" stroke="black" stroke-width="2"/>
<path d="M8 49H56" stroke="black" stroke-width="2"/>
<path d="M15.9999 18.5L16.758 20.2353L18.6666 20.4098L17.2266 21.6568L17.648 23.5L15.9999 22.5353L14.3518 23.5L14.7733 21.6568L13.3333 20.4098L15.2418 20.2353L15.9999 18.5Z" fill="black"/>
<path d="M35.8359 35.9297H34.1953L36.6465 43H38.5312L40.9727 35.9297H39.3516L37.623 41.3203H37.5547L35.8359 35.9297ZM43.2383 35.9297H41.7734V43H43.2383V35.9297ZM44.4297 43H45.8945V40.6953H47.1641C48.7949 40.6953 49.7324 39.7236 49.7324 38.3125C49.7324 36.9209 48.8096 35.9297 47.2031 35.9297H44.4297V43ZM45.8945 39.5137V37.1309H46.9297C47.7988 37.1357 48.2236 37.6094 48.2188 38.3125C48.2236 39.0254 47.7988 39.5137 46.9297 39.5137H45.8945Z" fill="black"/>
</svg>
