<svg width="37" height="36" viewBox="0 0 37 36" fill="none" xmlns="http://www.w3.org/2000/svg">
<path fill-rule="evenodd" clip-rule="evenodd" d="M19.6817 5.52827L22.919 13.0456L31.0688 13.8015L33.8098 14.0557L31.7417 15.8725L25.5927 21.2744L26.9068 27.1051L24.5252 25.6347L23.6416 21.7141L23.3805 20.5556L24.2727 19.7718L29.0007 15.6183L22.7343 15.0371L21.5518 14.9274L21.0821 13.8367L18.5929 8.05654L16.1037 13.8367L15.634 14.9274L14.4515 15.0371L8.18503 15.6183L12.9131 19.7718L13.8053 20.5556L13.5442 21.7141L12.1605 27.8534L17.5718 24.6403L18.5929 24.034L19.614 24.6403L24.0519 27.2755L27.4129 29.3507L27.9974 31.9443L25.6305 30.5388L18.5929 26.36L11.5552 30.5388L9.18832 31.9443L9.79355 29.2589L11.5931 21.2744L5.44405 15.8725L3.37598 14.0557L6.11696 13.8015L14.2668 13.0456L17.5041 5.52827L18.5929 3L19.6817 5.52827Z" fill="black"/>
</svg>
