<svg width="120" height="120" viewBox="0 0 120 120" fill="none" xmlns="http://www.w3.org/2000/svg">
<path fill-rule="evenodd" clip-rule="evenodd" d="M94.25 22.5H15.25V76H12.25V22.5V19.5H15.25H94.25H97.25V22.5V58.808C96.2948 58.222 95.2924 57.7052 94.25 57.2648V22.5ZM63.2706 81.5H15.25H12.25V84.5H15.25H63.9531C63.6598 83.5262 63.4306 82.5245 63.2706 81.5Z" fill="black"/>
<path d="M12.25 40.5469H95.8214V43.373H12.25V40.5469Z" fill="black"/>
<path d="M23.0835 73H37.0121V76H23.0835V73Z" fill="black"/>
<path fill-rule="evenodd" clip-rule="evenodd" d="M94.9096 74.8339L84.4846 85.2588L76.4007 77.1749L78.5221 75.0536L84.4846 81.0162L92.7882 72.7125L94.9096 74.8339Z" fill="black"/>
<path fill-rule="evenodd" clip-rule="evenodd" d="M85.25 57C73.652 57 64.25 66.402 64.25 78C64.25 89.598 73.652 99 85.25 99C88.873 99 92.2775 98.0838 95.249 96.4716L96.6796 99.1086C93.2799 100.953 89.385 102 85.25 102C71.9952 102 61.25 91.2548 61.25 78C61.25 64.7452 71.9952 54 85.25 54C98.5048 54 109.25 64.7452 109.25 78C109.25 85.3254 105.966 91.8853 100.796 96.2852C100.57 96.4773 100.341 96.6653 100.108 96.8491L98.2493 94.4942C98.4531 94.3333 98.6539 94.1687 98.8516 94.0005C103.381 90.1463 106.25 84.409 106.25 78C106.25 66.402 96.848 57 85.25 57Z" fill="black"/>
</svg>
