<svg width="64" height="64" viewBox="0 0 64 64" fill="none" xmlns="http://www.w3.org/2000/svg">
<path fill-rule="evenodd" clip-rule="evenodd" d="M39.95 19.8328H53.7299L58.1971 28.4626V43.4975H60.3971V27.9269L55.0683 17.6328H39.95H37.75V19.8328V43.4975H39.95V19.8328ZM51 46.7475V48.9188H53.2H58.1971H60.3971V46.7475H51Z" fill="black"/>
<path fill-rule="evenodd" clip-rule="evenodd" d="M37.7853 11.5984H5.95V43.4984H3.75V11.5984V9.39844H5.95H37.7853H39.9853V11.5984V43.4984H37.7853V11.5984ZM11.3013 46.7484H3.75V48.9278H5.95H11.2126C11.1789 48.6581 11.1616 48.3832 11.1616 48.1043C11.1616 47.6396 11.2098 47.186 11.3013 46.7484ZM24.1984 46.7484H39.9853V48.9278H37.7853H24.2871C24.3208 48.6581 24.3381 48.3832 24.3381 48.1043C24.3381 47.6396 24.29 47.186 24.1984 46.7484Z" fill="black"/>
<path fill-rule="evenodd" clip-rule="evenodd" d="M17.7499 52.4921C20.1734 52.4921 22.1381 50.5274 22.1381 48.1039C22.1381 45.6803 20.1734 43.7156 17.7499 43.7156C15.3263 43.7156 13.3616 45.6803 13.3616 48.1039C13.3616 50.5274 15.3263 52.4921 17.7499 52.4921ZM17.7499 54.6921C21.3884 54.6921 24.3381 51.7424 24.3381 48.1039C24.3381 44.4653 21.3884 41.5156 17.7499 41.5156C14.1113 41.5156 11.1616 44.4653 11.1616 48.1039C11.1616 51.7424 14.1113 54.6921 17.7499 54.6921Z" fill="black"/>
<path fill-rule="evenodd" clip-rule="evenodd" d="M45.7499 52.4921C48.1734 52.4921 50.1381 50.5274 50.1381 48.1039C50.1381 45.6803 48.1734 43.7156 45.7499 43.7156C43.3263 43.7156 41.3616 45.6803 41.3616 48.1039C41.3616 50.5274 43.3263 52.4921 45.7499 52.4921ZM45.7499 54.6921C49.3884 54.6921 52.3381 51.7424 52.3381 48.1039C52.3381 44.4653 49.3884 41.5156 45.7499 41.5156C42.1113 41.5156 39.1616 44.4653 39.1616 48.1039C39.1616 51.7424 42.1113 54.6921 45.7499 54.6921Z" fill="black"/>
</svg>
