<svg width="64" height="64" viewBox="0 0 64 64" fill="none" xmlns="http://www.w3.org/2000/svg">
<path fill-rule="evenodd" clip-rule="evenodd" d="M48.9105 7L48.9109 7.01275L63.1803 16.2906L56.4423 28.9424L55.4053 30.8895L53.5405 29.7108L51.6796 28.5345L49.4415 27.1199L49.5113 29.7666L50.098 51.9999H47.8972L47.2422 27.1779L47.1335 23.0584L50.6169 25.2602L54.5775 27.7636L60.2908 17.036L48.2389 9.2H40.0587C38.7284 12.3043 35.6889 14.509 32.0997 14.509C28.5106 14.509 25.471 12.3043 24.1407 9.2H15.9428H15.9414L3.88953 17.036L9.60283 27.7637L13.5827 25.248L17.0661 23.0462L16.9574 27.1657L16.3019 51.9999H14.1011L14.6883 29.7545L14.7581 27.1077L12.52 28.5224L10.6398 29.7108L8.77505 30.8895L7.73804 28.9424L1 16.2906L15.2888 7.00015L25.7501 7C26.3503 10.0291 28.965 12.309 32.0997 12.309C35.2344 12.309 37.8492 10.0291 38.4494 7H48.891H48.9105ZM14.0154 55.2499L13.9578 57.4326H16.1585H48.0406H50.2413L50.1837 55.2499H14.0154Z" fill="black"/>
</svg>
