<svg width="37" height="36" viewBox="0 0 37 36" fill="none" xmlns="http://www.w3.org/2000/svg">
<path d="M15.459 23.368L23.159 17.7262L15.459 12.168V23.368Z" fill="black"/>
<path fill-rule="evenodd" clip-rule="evenodd" d="M7.37549 5.8H29.3755C30.0382 5.8 30.5755 6.33726 30.5755 7V29C30.5755 29.2291 30.5113 29.4432 30.3999 29.6253L31.5602 31.056C32.0657 30.519 32.3755 29.7957 32.3755 29V7C32.3755 5.34315 31.0323 4 29.3755 4H7.37549C5.71863 4 4.37549 5.34315 4.37549 7V29C4.37549 30.6569 5.71863 32 7.37549 32H29.3755C29.3833 32 29.3912 32 29.399 31.9999L28.3059 30.2H7.37549C6.71275 30.2 6.17549 29.6627 6.17549 29V7C6.17549 6.33726 6.71275 5.8 7.37549 5.8Z" fill="black"/>
</svg>
