<svg width="64" height="64" viewBox="0 0 64 64" fill="none" xmlns="http://www.w3.org/2000/svg">
<path fill-rule="evenodd" clip-rule="evenodd" d="M31.9999 7.09844C18.248 7.09844 7.0999 18.2465 7.0999 31.9984C7.0999 45.7503 18.248 56.8984 31.9999 56.8984C36.2945 56.8984 40.3322 55.8121 43.8563 53.9001L44.9054 55.8339C41.0672 57.9162 36.67 59.0984 31.9999 59.0984C17.033 59.0984 4.8999 46.9654 4.8999 31.9984C4.8999 17.0315 17.033 4.89844 31.9999 4.89844C46.9668 4.89844 59.0999 17.0315 59.0999 31.9984C59.0999 40.2699 55.3929 47.6766 49.5535 52.6457C49.2986 52.8626 49.0396 53.0749 48.7766 53.2825L47.4136 51.5555C47.6553 51.3648 47.8934 51.1696 48.1277 50.9702C53.4969 46.4013 56.8999 39.5978 56.8999 31.9984C56.8999 18.2465 45.7518 7.09844 31.9999 7.09844Z" fill="black"/>
<path d="M20.5 30.5H23.5V33.5H20.5V30.5Z" fill="black"/>
<path d="M30.5 30.5H33.5V33.5H30.5V30.5Z" fill="black"/>
<path d="M40.5 30.5H43.5V33.5H40.5V30.5Z" fill="black"/>
</svg>
