<svg width="64" height="64" viewBox="0 0 64 64" fill="none" xmlns="http://www.w3.org/2000/svg">
<path d="M13.9995 17H41.9995V19.2H13.9995V17Z" fill="black"/>
<path d="M13.9995 24H41.9995V26.2H13.9995V24Z" fill="black"/>
<path d="M13.9995 31H27.9995V33.2H13.9995V31Z" fill="black"/>
<path fill-rule="evenodd" clip-rule="evenodd" d="M55.8032 8.2H50.0032V24.8H55.8032V8.2ZM47.8032 6V27H58.0032V6H47.8032Z" fill="black"/>
<path fill-rule="evenodd" clip-rule="evenodd" d="M47.7995 57.1L38.9995 53.5L27.9995 58L16.9995 53.5L8.19951 57.1L5.99951 58V55.623L5.99952 8.2L5.99952 6H8.19952H47.7995L49.9995 6V8.2L49.9995 52.3763L47.7995 51.4752V8.2L8.19952 8.2L8.19951 54.723L16.1665 51.4638L16.9995 51.123L17.8325 51.4638L27.9995 55.623L38.1665 51.4638L38.9995 51.123L39.8325 51.4638L47.7995 54.723V54.7171L49.9995 55.6182V55.623V58L47.7995 57.1Z" fill="black"/>
</svg>
