<svg width="112" height="20" viewBox="0 0 112 20" fill="none" xmlns="http://www.w3.org/2000/svg">
  <path d="M44.0108 8.19777C40.8726 7.33867 39.9057 6.87523 39.9057 5.32234C39.9057 3.76944 41.356 2.82632 43.0663 2.82632C45.2292 2.82632 46.7942 4.02149 46.7942 6.39555C46.7942 6.39555 46.7942 6.60151 46.7942 6.76412H50.1699C50.1699 6.62048 50.1839 6.39555 50.1839 6.39555C50.1839 2.78838 47.3475 0.224609 43.2144 0.224609C39.2266 0.224609 36.3539 2.46317 36.3539 5.59064C36.3539 9.09211 39.1959 10.3469 42.826 11.2467C45.7826 11.9838 47.2245 12.5827 47.2245 14.3904C47.2245 15.9921 45.9782 17.1737 43.6364 17.1737C41.1213 17.1737 39.2881 15.8701 39.2881 13.179C39.2881 13.179 39.2881 12.9865 39.2881 12.8104H35.9235C35.9101 12.9328 35.9045 13.0559 35.9067 13.179C35.9067 17.4799 39.0338 19.7754 43.7118 19.7754C48.3144 19.7754 50.8295 17.4501 50.8295 14.1383C50.8295 10.3469 47.6381 9.18697 44.0108 8.19777Z" fill="black"/>
  <path d="M8.10466 8.19777C4.96363 7.33867 3.99952 6.87523 3.99952 5.32234C3.99952 3.76944 5.45267 2.82632 7.16012 2.82632C9.32308 2.82632 10.888 4.02149 10.888 6.39555C10.888 6.39555 10.888 6.60151 10.888 6.76412H14.2526C14.2526 6.62048 14.2526 6.39555 14.2526 6.39555C14.2526 2.78838 11.4134 0.224609 7.28308 0.224609C3.2953 0.224609 0.422534 2.46317 0.422534 5.59064C0.422534 9.09211 3.26456 10.3469 6.89464 11.2467C9.85403 11.9784 11.2904 12.5638 11.2904 14.385C11.2904 15.9866 10.0469 17.1683 7.70505 17.1683C5.18998 17.1683 3.35398 15.8647 3.35398 13.1735C3.35398 13.1735 3.35398 12.9811 3.37075 12.805H0.0173303C0.00370427 12.9292 -0.00189609 13.0541 0.000562761 13.179C0.000562761 17.4799 3.12483 19.7754 7.80565 19.7754C12.4082 19.7754 14.9233 17.4501 14.9233 14.1383C14.9233 10.3469 11.7375 9.18697 8.10466 8.19777Z" fill="black"/>
  <path d="M76.3448 11.7067H85.2313V8.69573H76.3448V3.98555H85.8908V0.974609H72.8125V19.7015H86.2793V16.6906H76.3448V11.7067Z" fill="black"/>
  <path d="M52.875 3.98555H59.0453V19.7015H62.5776V3.98555H68.7479V0.974609H52.875V3.98555Z" fill="black"/>
  <path d="M27.665 5.65498C26.9692 6.76341 25.7396 8.8231 25.4294 9.47082H25.2729C24.9571 8.8231 23.7276 6.7607 23.0373 5.65498L20.2428 0.974609H16.2578L23.5683 12.4601V19.6961H27.1061V12.4601L34.4166 0.974609H30.4596L27.665 5.65498Z" fill="black"/>
  <path d="M106.224 0.974609L103.307 10.6009C102.642 12.666 101.7 16.7448 101.7 16.7448H101.544C101.544 16.7448 100.602 12.666 99.9367 10.6009L97.0192 0.974609H91.4609V19.6961H94.915V7.06153C94.915 5.59535 94.8479 4.12105 94.8172 3.80939H94.9736L99.6237 19.6961H103.62L108.27 3.80396H108.429C108.399 4.11292 108.331 5.58722 108.331 7.0561V19.6961H111.783V0.974609H106.224Z" fill="black"/>
</svg>
