<svg width="55" height="20" viewBox="0 0 55 20" fill="none" xmlns="http://www.w3.org/2000/svg">
<path d="M12.6461 15.2031C12.957 14.6372 13.1204 14.0018 13.1211 13.3558C13.1211 9.51948 9.91432 8.45328 7.33378 7.57495C5.19703 6.84163 3.88211 6.14457 3.5994 4.98279C3.23944 3.49968 4.38342 2.00173 6.91794 2.00173C6.91794 2.00173 10.1642 1.73971 11.9377 5.53979V2.21266C9.8946 0.648798 6.76836 0.835014 6.76836 0.835014C3.6898 0.828423 0.621094 2.4236 0.621094 5.38818C0.621094 8.71366 3.70788 9.79468 6.19802 10.645C7.33049 11.0323 9.7516 12.026 10.9202 13.0098C11.6565 13.5973 12.2467 14.3481 12.6444 15.2031" fill="black"/>
<path d="M0.621094 12.7109V16.2957C4.95366 19.7615 9.99609 17.7622 9.99609 17.7622C3.11898 17.9561 0.872716 13.2845 0.621094 12.7109Z" fill="black"/>
<path d="M19.7952 13.4211C19.7952 15.5286 18.6793 17.6908 15.6757 17.7107C12.1026 17.7389 10.4455 14.5602 9.99609 13.6051V16.9347C10.7211 17.7737 12.8794 18.9609 15.6991 18.9609C20.4617 18.9609 23.1211 16.6959 23.1211 13.4227V1.46094H18.3452C18.3452 1.46094 19.7885 2.57189 19.7885 4.11396L19.7952 13.4211Z" fill="black"/>
<path d="M43.8865 15.2109C44.2066 14.6434 44.3744 14.009 44.375 13.3645C44.375 9.52988 41.0075 8.46417 38.3079 7.58624C36.0485 6.85325 34.6676 6.15651 34.3811 4.99526C34.0048 3.51282 35.2061 2.01555 37.8746 2.01555C37.8746 2.01555 41.2853 1.75366 43.1443 5.552V2.22639C40.9833 0.656652 37.7141 0.842776 37.7141 0.842776C34.4846 0.842776 31.25 2.43723 31.25 5.40047C31.25 8.72443 34.4967 9.80496 37.1186 10.6549C38.3113 11.042 40.8573 12.0352 42.0759 13.0186C42.8525 13.6033 43.474 14.3544 43.89 15.2109" fill="black"/>
<path d="M31.25 12.7109V16.2957C35.8617 19.7615 41.25 17.7622 41.25 17.7622C33.9139 17.9561 31.513 13.2845 31.25 12.7109Z" fill="black"/>
<path d="M50.4315 13.4211C50.4315 15.5286 49.3276 17.6908 46.3119 17.7107C42.7358 17.7389 41.08 14.5602 40.625 13.6051V16.9347C41.3409 17.7737 43.5019 18.9609 46.3286 18.9609C51.0956 18.9609 53.75 16.6959 53.75 13.4227V1.46094H48.9847C48.9847 1.46094 50.4265 2.57189 50.4265 4.11396L50.4315 13.4211Z" fill="black"/>
</svg>
