<svg width="86" height="29" viewBox="0 0 86 29" fill="none" xmlns="http://www.w3.org/2000/svg">
<path d="M15.2079 6V9.16504C13.4758 7.98565 11.4076 7.37464 9.29978 7.41957V23.8684H5.90817V7.41957C3.80176 7.37096 1.73368 7.97756 0 9.15251V6H15.2079Z" fill="black"/>
<path d="M86.0007 22.3767V23.8903H74.9476V9.16191C74.9487 8.04336 74.6277 6.94728 74.0215 6H85.643V8.43489C85.643 8.43489 83.6726 7.34436 79.5496 7.34436H78.3552V13.8186H84.0079V15.3384H78.3552V22.3767H86.0007Z" fill="black"/>
<path d="M30.422 6.0094V23.8903H27.0304V9.16191C27.0314 8.04381 26.7115 6.94803 26.1074 6L30.422 6.0094Z" fill="black"/>
<path d="M63.0246 6.00627V23.8872H59.5787V10.196L52.936 24H52.358L45.7121 10.1741V23.8872H44.0291V9.15877C44.0367 8.03119 43.6911 6.92852 43.0391 6H47.5931L53.661 18.6257L59.7448 6L63.0246 6.00627Z" fill="black"/>
</svg>
