<svg width="11" height="11" viewBox="0 0 11 11" fill="none" xmlns="http://www.w3.org/2000/svg">
<path fill-rule="evenodd" clip-rule="evenodd" d="M4.04897 6.99793C5.67764 6.99793 6.99793 5.67764 6.99793 4.04897C6.99793 2.4203 5.67764 1.1 4.04897 1.1C2.4203 1.1 1.1 2.4203 1.1 4.04897C1.1 5.67764 2.4203 6.99793 4.04897 6.99793ZM4.04897 8.09793C6.28515 8.09793 8.09793 6.28515 8.09793 4.04897C8.09793 1.81278 6.28515 0 4.04897 0C1.81278 0 0 1.81278 0 4.04897C0 6.28515 1.81278 8.09793 4.04897 8.09793Z" fill="#5676C5"/>
<path fill-rule="evenodd" clip-rule="evenodd" d="M9.61122 10.3889L6.27777 7.05555L7.05557 6.27772L10.389 9.6111L9.61122 10.3889Z" fill="#5676C5"/>
</svg>
