<svg width="40" height="40" viewBox="0 0 40 40" fill="none" xmlns="http://www.w3.org/2000/svg">
<g clip-path="url(#clip0_18405_69460)">
<path d="M19.9987 5C10.7937 5 3.33203 10.7789 3.33203 17.9078C3.33203 22.5481 6.49389 26.6142 11.2384 28.8895C10.8896 30.1651 9.97608 33.5088 9.79303 34.2243C9.56768 35.1125 10.1254 35.1007 10.4907 34.8613C10.7773 34.6743 15.0582 31.8238 16.9051 30.5931C17.9075 30.7386 18.941 30.8155 19.9987 30.8155C29.2037 30.8155 36.6654 25.0358 36.6654 17.9078C36.6654 10.7789 29.2037 5 19.9987 5Z" fill="black"/>
<path d="M13.2919 14.1064H8.41873C7.96025 14.1064 7.58984 14.4702 7.58984 14.9185C7.58984 15.3668 7.96112 15.7305 8.41873 15.7305H10.0031V21.4502C10.0031 21.6583 10.0895 21.863 10.2414 22.011C10.3899 22.1582 10.598 22.2427 10.8113 22.2427H10.9883C11.2007 22.2427 11.4079 22.1582 11.5573 22.011C11.7092 21.863 11.7956 21.6591 11.7956 21.4502V15.7305H13.2919C13.7504 15.7305 14.1216 15.3668 14.1216 14.9185C14.1216 14.4702 13.7504 14.1064 13.2919 14.1064Z" fill="white"/>
<path d="M25.0044 20.7151H22.738V14.8736C22.738 14.3864 22.3356 13.9922 21.8391 13.9922C21.3427 13.9922 20.9395 14.3864 20.9395 14.8736V21.1701C20.9395 21.2192 20.9455 21.2649 20.9533 21.3114C20.9446 21.3571 20.9395 21.4044 20.9395 21.4518C20.9395 21.8595 21.2753 22.1894 21.6915 22.1894H25.0036C25.4206 22.1894 25.7556 21.8595 25.7556 21.4518C25.7565 21.0449 25.4215 20.7151 25.0044 20.7151Z" fill="white"/>
<path d="M32.2468 20.9832L29.7212 17.7334L32.0033 15.497C32.3124 15.195 32.3124 14.7036 32.0033 14.4007C31.6942 14.0979 31.1934 14.0979 30.8834 14.4007L28.0583 17.1684V14.8736C28.0583 14.3864 27.6559 13.9922 27.1595 13.9922C26.663 13.9922 26.2598 14.3864 26.2598 14.8736V21.3638C26.2598 21.851 26.6621 22.2452 27.1595 22.2452C27.6559 22.2452 28.0583 21.8519 28.0583 21.3638V19.3617L28.572 18.8592L30.9611 21.9297C31.227 22.2773 31.7322 22.3492 32.087 22.0862C32.4419 21.8248 32.5136 21.3308 32.2468 20.9832Z" fill="white"/>
<path d="M20.2677 21.1937L17.8389 14.684C17.8389 14.684 17.8328 14.6789 17.8311 14.6764C17.6757 14.2796 17.2276 13.9912 16.6931 13.9912C16.0999 13.9912 15.6095 14.3465 15.5119 14.8108C15.4955 14.8455 15.4791 14.8802 15.4653 14.9174L13.0771 21.1937C12.9294 21.6056 13.1505 22.0556 13.5692 22.2002C13.9888 22.3449 14.4491 22.1284 14.5967 21.7173L15.0103 20.5618H18.3345L18.7472 21.7173C18.8948 22.1284 19.355 22.3449 19.7747 22.2002C20.1934 22.0565 20.4153 21.6056 20.2677 21.1937ZM15.5378 19.0867L16.6551 15.9637C16.6681 15.9637 16.6784 15.9671 16.6914 15.9671L17.8078 19.0867H15.5378Z" fill="white"/>
</g>
<defs>
<clipPath id="clip0_18405_69460">
<rect width="33.3333" height="30" fill="white" transform="translate(3.33203 5)"/>
</clipPath>
</defs>
</svg>
