<svg width="40" height="40" viewBox="0 0 40 40" fill="none" xmlns="http://www.w3.org/2000/svg">
<path d="M12.9531 14.6875V21.8438C12.9609 23.1484 12.0391 24.0859 10.625 24.0938C9.22656 24.0859 8.30469 23.1484 8.29688 21.8438V14.6875H5.95312V22.0312C5.95312 24.5078 7.8125 26.1641 10.625 26.1562C13.4297 26.1641 15.3125 24.5078 15.3125 22.0312V14.6875H12.9531ZM17.2188 26H19.5625V21.9844H21.3516L23.5156 26H26.1094L23.7031 21.6016C24.9922 21.0469 25.7031 19.9219 25.7031 18.375C25.7031 16.1328 24.2266 14.6875 21.6562 14.6875H17.2188V26ZM19.5625 20.0781V16.6094H21.2188C22.6094 16.6172 23.2891 17.2344 23.2812 18.375C23.2891 19.5078 22.6094 20.0781 21.2188 20.0781H19.5625ZM27.3281 26H34.5469V24.0625H29.6719V14.6875H27.3281V26Z" fill="black"/>
</svg>
