<svg width="120" height="120" viewBox="0 0 120 120" fill="none" xmlns="http://www.w3.org/2000/svg">
<rect width="120" height="120" rx="60" fill="black"/>
<path d="M50.1875 50.2031V62.9727C50.1875 64.431 49.8366 65.7116 49.1348 66.8145C48.4421 67.9173 47.4668 68.7695 46.209 69.3711C44.9512 69.9727 43.4974 70.2734 41.8477 70.2734C40.1888 70.2734 38.7305 69.9727 37.4727 69.3711C36.2148 68.7695 35.2396 67.9173 34.5469 66.8145C33.8542 65.7116 33.5078 64.431 33.5078 62.9727V50.2031H38.1562V62.5898C38.1562 63.2826 38.3112 63.9023 38.6211 64.4492C38.931 64.9961 39.3639 65.4245 39.9199 65.7344C40.485 66.0443 41.1276 66.1992 41.8477 66.1992C42.5677 66.1992 43.2057 66.0443 43.7617 65.7344C44.3177 65.4245 44.7461 64.9961 45.0469 64.4492C45.3568 63.9023 45.5117 63.2826 45.5117 62.5898V50.2031H50.1875ZM55.1953 50.2031H63.2891C64.7656 50.2031 66.0417 50.472 67.1172 51.0098C68.2018 51.5384 69.0312 52.2995 69.6055 53.293C70.1888 54.2773 70.4805 55.4349 70.4805 56.7656C70.4896 58.1146 70.1979 59.2721 69.6055 60.2383C69.013 61.2044 68.1608 61.9382 67.0488 62.4395L71.1914 70H66.0781L62.4414 63.1914H59.8438V70H55.1953V50.2031ZM62.3047 59.4727C64.5469 59.4909 65.668 58.5885 65.668 56.7656C65.668 55.8359 65.3809 55.1387 64.8066 54.6738C64.2415 54.209 63.4076 53.9766 62.3047 53.9766H59.8438V59.4727H62.3047ZM75.1055 50.2031H79.7539V66.1992H88.0664V70H75.1055V50.2031Z" fill="white"/>
</svg>
