<svg width="120" height="120" viewBox="0 0 120 120" fill="none" xmlns="http://www.w3.org/2000/svg">
<rect width="120" height="120" rx="60" fill="#FAE301"/>
<path fill-rule="evenodd" clip-rule="evenodd" d="M60.5 84.6745C79.0015 84.6745 94 72.8829 94 58.3372C94 43.7916 79.0015 32 60.5 32C41.9985 32 27 43.7916 27 58.3372C27 67.6403 33.1352 75.8167 42.3982 80.5022C42.1716 81.261 41.9307 82.0495 41.6876 82.845C40.2707 87.4822 38.7815 92.356 39.6515 92.9372C40.4595 93.4769 44.8302 90.4468 49.2009 87.4167C50.853 86.2714 52.505 85.1261 53.9647 84.1736C56.0784 84.5022 58.2636 84.6745 60.5 84.6745Z" fill="#3B1D1D"/>
<path fill-rule="evenodd" clip-rule="evenodd" d="M42.4597 67.1527C42.9455 67.1527 43.3623 66.9662 43.6829 66.5845L43.6852 66.5818C44.015 66.1802 44.1515 65.6044 44.1515 64.9201V54.1128H46.903C47.4183 54.1128 47.8618 53.9898 48.1785 53.6846L48.1819 53.6813C48.4911 53.3744 48.642 52.9691 48.642 52.4976C48.642 52.0269 48.4916 51.6222 48.1834 51.3155C47.871 50.9981 47.4235 50.872 46.903 50.872H37.9975C37.4966 50.872 37.0636 50.9972 36.7438 51.2974L36.7409 51.3002C36.4259 51.6037 36.2773 52.0164 36.2773 52.4976C36.2773 52.9661 36.4231 53.3705 36.725 53.6783L36.7284 53.6816C37.0402 53.9902 37.4831 54.1128 37.9975 54.1128H40.749V64.9201C40.749 65.5986 40.886 66.1703 41.2153 66.5713L41.2178 66.5743C41.5442 66.9622 41.9669 67.1527 42.4597 67.1527ZM56.1696 63.2282L56.7551 64.9358L56.7582 64.9443C56.8467 65.1827 56.9507 65.4593 57.0704 65.7739L57.0739 65.7822C57.2034 66.0983 57.3311 66.356 57.4592 66.5399L57.4635 66.5458C57.5987 66.731 57.7655 66.8764 57.9605 66.981C58.1694 67.1004 58.4072 67.1527 58.6629 67.1527C59.1202 67.1527 59.5188 66.9713 59.8409 66.6141C60.1567 66.2637 60.3359 65.8536 60.3359 65.391C60.3359 64.9749 60.1709 64.3716 59.8885 63.6194L59.8879 63.6178L56.2771 53.724C56.108 53.2307 55.9657 52.8342 55.8507 52.5361C55.7357 52.2146 55.5902 51.9143 55.4141 51.6358C55.2287 51.3323 54.9822 51.0891 54.6811 50.9054C54.3651 50.7014 53.9854 50.6104 53.5592 50.6104C53.1366 50.6104 52.7578 50.7026 52.4372 50.9054C52.1398 51.0908 51.894 51.3385 51.7036 51.6472L51.7006 51.6523C51.5286 51.9423 51.3687 52.2995 51.219 52.7183L51.218 52.7212C51.0798 53.1184 50.9603 53.4601 50.8599 53.7456L47.3235 63.705L47.3231 63.7063C47.1777 64.1061 47.0704 64.4261 47.0039 64.6621C46.9329 64.9143 46.8957 65.1646 46.8957 65.4119C46.8957 65.8808 47.0745 66.2902 47.3959 66.6302C47.7193 66.9722 48.1047 67.1527 48.5404 67.1527C49.0119 67.1527 49.419 67 49.6791 66.6219L49.6814 66.6186C49.8924 66.3038 50.1251 65.7424 50.3828 64.9754L50.9693 63.2282H56.1696ZM55.189 60.2176H51.9267L53.5429 55.2187L55.189 60.2176ZM69.9416 66.8911C70.4418 66.8911 70.8739 66.7662 71.1888 66.4628L71.1922 66.4595C71.5001 66.1539 71.6523 65.753 71.6523 65.2864C71.6523 64.8225 71.4942 64.424 71.1846 64.115C70.8705 63.795 70.44 63.6607 69.9416 63.6607H64.5675V52.8325C64.5675 52.1547 64.4275 51.5839 64.0894 51.189C63.7678 50.799 63.3438 50.6104 62.8474 50.6104C62.3545 50.6104 61.9333 50.8011 61.6125 51.1918L61.6099 51.1949C61.2892 51.5952 61.1555 52.1616 61.1555 52.8325V64.648C61.1555 65.3555 61.2934 65.9471 61.6386 66.3391L61.6411 66.342C61.9948 66.7344 62.533 66.8911 63.1776 66.8911H69.9416ZM84.0065 52.2988C84.0065 51.8282 83.8456 51.422 83.5341 51.1009C83.2224 50.7657 82.8181 50.6104 82.3524 50.6104C82.0025 50.6104 81.6869 50.6935 81.4322 50.8913L81.4282 50.8944C81.2241 51.0584 80.986 51.3021 80.7167 51.6151L75.7425 57.3699V52.8325C75.7425 52.1547 75.6025 51.5839 75.2644 51.189C74.9428 50.799 74.5187 50.6104 74.0223 50.6104C73.5201 50.6104 73.0928 50.7989 72.7755 51.1949L72.7729 51.1981C72.4603 51.5983 72.3305 52.1634 72.3305 52.8325V64.2398C72.3305 64.7309 72.3399 65.115 72.3598 65.387C72.3812 65.6804 72.4427 65.9508 72.5511 66.1914L72.5579 66.205C72.7055 66.4978 72.9158 66.7299 73.1823 66.8988C73.4456 67.0657 73.727 67.1527 74.0223 67.1527C74.5129 67.1527 74.9349 66.9675 75.2619 66.5875L75.2642 66.5847C75.602 66.1832 75.7425 65.6061 75.7425 64.9201V61.8934L77.6749 59.8379L80.7813 65.1396C80.9139 65.3915 81.0648 65.6704 81.2339 65.9762C81.4239 66.3196 81.6598 66.6031 81.9429 66.8205L81.9474 66.8238C82.2566 67.0525 82.6383 67.1527 83.0694 67.1527C83.5405 67.1527 83.9495 67.0089 84.2587 66.6849C84.5599 66.3759 84.7235 65.9921 84.7235 65.548C84.7235 65.1834 84.6411 64.8201 84.4865 64.4611C84.3379 64.1092 84.1199 63.7117 83.8377 63.2706L83.837 63.2695L80.0643 57.2733L83.2792 53.8945L83.2801 53.8936C83.7357 53.4108 84.0065 52.8782 84.0065 52.2988Z" fill="#FAE301"/>
</svg>
