<svg width="40" height="40" viewBox="0 0 40 40" fill="none" xmlns="http://www.w3.org/2000/svg">
<path d="M13.6922 33C26.5233 33 33.5403 22.998 33.5403 14.3251C33.5403 14.0416 33.5344 13.7581 33.5204 13.4765C34.8831 12.551 36.0662 11.3947 37 10.0787C35.751 10.6006 34.4043 10.9535 32.9937 11.1112C34.4342 10.2983 35.5395 9.01242 36.0603 7.48058C34.7115 8.23336 33.2191 8.77964 31.6309 9.07437C30.36 7.79783 28.5464 7 26.5412 7C22.6885 7 19.5641 9.93978 19.5641 13.5629C19.5641 14.0773 19.6259 14.5785 19.7456 15.0591C13.9476 14.785 8.806 12.1737 5.36629 8.20144C4.76774 9.17199 4.42057 10.2983 4.42057 11.4998C4.42057 13.7769 5.6516 15.7874 7.52509 16.9626C6.38184 16.9288 5.30644 16.6341 4.36471 16.1422C4.36471 16.1704 4.36471 16.1986 4.36471 16.2267C4.36471 19.4068 6.76891 22.0594 9.96121 22.662C9.37463 22.8121 8.75811 22.8929 8.12165 22.8929C7.67273 22.8929 7.23578 22.8516 6.81081 22.7746C7.69867 25.3821 10.2745 27.28 13.3271 27.3326C10.9389 29.0934 7.9321 30.1428 4.66399 30.1428C4.10134 30.1428 3.54668 30.1128 3 30.0527C6.08656 31.9131 9.75371 33 13.6922 33Z" fill="black"/>
</svg>
